<svg version="1.1" viewBox="0.0 0.0 804.0 497.0" fill="none" stroke="none" stroke-linecap="square" stroke-miterlimit="10" width="804" height="497" xmlns:xlink="http://www.w3.org/1999/xlink" xmlns="http://www.w3.org/2000/svg"><path fill="#181818" d="M0 0L804.0 0L804.0 497.0L0 497.0L0 0Z" fill-rule="nonzero"/><path stroke="#e4e4e4" stroke-width="1.0" stroke-linecap="butt" d="M84.5 121.5L84.5 418.5" fill-rule="nonzero"/><path stroke="#4b4b4b" stroke-width="1.0" stroke-linecap="butt" d="M223.5 121.5L223.5 418.5" fill-rule="nonzero"/><path stroke="#4b4b4b" stroke-width="1.0" stroke-linecap="butt" d="M362.5 121.5L362.5 418.5" fill-rule="nonzero"/><path stroke="#4b4b4b" stroke-width="1.0" stroke-linecap="butt" d="M501.5 121.5L501.5 418.5" fill-rule="nonzero"/><path stroke="#4b4b4b" stroke-width="1.0" stroke-linecap="butt" d="M640.5 121.5L640.5 418.5" fill-rule="nonzero"/><path stroke="#4b4b4b" stroke-width="1.0" stroke-linecap="butt" d="M779.5 121.5L779.5 418.5" fill-rule="nonzero"/><clipPath id="id_0"><path d="M84.85 121.48333L779.15 121.48333L779.15 418.15L84.85 418.15L84.85 121.48333Z" clip-rule="nonzero"/></clipPath><path stroke="#000000" stroke-width="0.0" stroke-linecap="butt" stroke-opacity="0.0" clip-path="url(#id_0)" d="M85.0 210.0L85.0 152.0L91.0 152.0L91.0 210.0Z" fill-rule="nonzero"/><path fill="#4285f4" clip-path="url(#id_0)" d="M85.0 210.0L85.0 152.0L91.0 152.0L91.0 210.0Z" fill-rule="nonzero"/><path stroke="#000000" stroke-width="0.0" stroke-linecap="butt" stroke-opacity="0.0" clip-path="url(#id_0)" d="M85.0 299.0L85.0 241.0L405.0 241.0L405.0 299.0Z" fill-rule="nonzero"/><path fill="#4285f4" clip-path="url(#id_0)" d="M85.0 299.0L85.0 241.0L405.0 241.0L405.0 299.0Z" fill-rule="nonzero"/><path stroke="#000000" stroke-width="0.0" stroke-linecap="butt" stroke-opacity="0.0" clip-path="url(#id_0)" d="M85.0 387.0L85.0 329.0L725.0 329.0L725.0 387.0Z" fill-rule="nonzero"/><path fill="#4285f4" clip-path="url(#id_0)" d="M85.0 387.0L85.0 329.0L725.0 329.0L725.0 387.0Z" fill-rule="nonzero"/><path stroke="#000000" stroke-width="0.0" stroke-linecap="butt" stroke-opacity="0.0" clip-path="url(#id_0)" d="M91.0 210.0L91.0 152.0L91.0 152.0C91.0 152.0 91.0 152.0 91.0 152.0L91.0 210.0C91.0 210.0 91.0 210.0 91.0 210.0Z" fill-rule="nonzero"/><path fill="#db4437" clip-path="url(#id_0)" d="M91.0 210.0L91.0 152.0L91.0 152.0C91.0 152.0 91.0 152.0 91.0 152.0L91.0 210.0C91.0 210.0 91.0 210.0 91.0 210.0Z" fill-rule="nonzero"/><path stroke="#000000" stroke-width="0.0" stroke-linecap="butt" stroke-opacity="0.0" clip-path="url(#id_0)" d="M405.0 299.0L405.0 241.0L406.5 241.0C407.32843 241.0 408.0 241.67157 408.0 242.5L408.0 297.5C408.0 298.32843 407.32843 299.0 406.5 299.0Z" fill-rule="nonzero"/><path fill="#db4437" clip-path="url(#id_0)" d="M405.0 299.0L405.0 241.0L406.5 241.0C407.32843 241.0 408.0 241.67157 408.0 242.5L408.0 297.5C408.0 298.32843 407.32843 299.0 406.5 299.0Z" fill-rule="nonzero"/><path stroke="#000000" stroke-width="0.0" stroke-linecap="butt" stroke-opacity="0.0" clip-path="url(#id_0)" d="M725.0 387.0L725.0 329.0L729.0 329.0C730.10455 329.0 731.0 329.89542 731.0 331.0L731.0 385.0C731.0 386.10458 730.10455 387.0 729.0 387.0Z" fill-rule="nonzero"/><path fill="#db4437" clip-path="url(#id_0)" d="M725.0 387.0L725.0 329.0L729.0 329.0C730.10455 329.0 731.0 329.89542 731.0 331.0L731.0 385.0C731.0 386.10458 730.10455 387.0 729.0 387.0Z" fill-rule="nonzero"/><path stroke="#181818" stroke-width="3.0" stroke-linejoin="round" stroke-linecap="round" d="M107.5143 185.5L106.43617 185.5L106.43617 178.28125L104.24867 179.07812L104.24867 178.09375L107.35805 176.92188L107.5143 176.92188L107.5143 185.5ZM111.09242 184.9375Q111.09242 184.65625 111.24867 184.46875Q111.42055 184.28125 111.74867 184.28125Q112.09242 184.28125 112.2643 184.46875Q112.43617 184.65625 112.43617 184.9375Q112.43617 185.20312 112.2643 185.39062Q112.09242 185.5625 111.74867 185.5625Q111.42055 185.5625 111.24867 185.39062Q111.09242 185.20312 111.09242 184.9375ZM117.5143 185.5L116.43617 185.5L116.43617 178.28125L114.24867 179.07812L114.24867 178.09375L117.35805 176.92188L117.5143 176.92188L117.5143 185.5ZM121.4518 181.21875L121.8893 176.96875L126.2643 176.96875L126.2643 177.96875L122.81117 177.96875L122.54555 180.29688Q123.18617 179.92188 123.98305 179.92188Q125.1393 179.92188 125.8268 180.70312Q126.5143 181.46875 126.5143 182.78125Q126.5143 184.09375 125.79555 184.85938Q125.09242 185.625 123.81117 185.625Q122.68617 185.625 121.96742 185.0Q121.24867 184.35938 121.15492 183.25L122.17055 183.25Q122.27992 183.98438 122.7018 184.35938Q123.12367 184.73438 123.81117 184.73438Q124.56117 184.73438 124.99867 184.21875Q125.43617 183.70312 125.43617 182.79688Q125.43617 181.9375 124.96742 181.42188Q124.49867 180.90625 123.71742 180.90625Q123.0143 180.90625 122.60805 181.20312L122.3268 181.4375L121.4518 181.21875ZM133.54555 185.5L127.9518 185.5L127.9518 184.71875L130.90492 181.4375Q131.56117 180.6875 131.81117 180.23438Q132.06117 179.76562 132.06117 179.26562Q132.06117 178.59375 131.65492 178.17188Q131.2643 177.73438 130.5768 177.73438Q129.77992 177.73438 129.3268 178.20312Q128.87367 178.65625 128.87367 179.48438L127.79555 179.48438Q127.79555 178.29688 128.54555 177.57812Q129.31117 176.84375 130.5768 176.84375Q131.77992 176.84375 132.46742 177.46875Q133.15492 178.09375 133.15492 179.14062Q133.15492 180.39062 131.54555 182.14062L129.2643 184.60938L133.54555 184.60938L133.54555 185.5Z" fill-rule="nonzero"/><path fill="#4285f4" d="M107.5143 185.5L106.43617 185.5L106.43617 178.28125L104.24867 179.07812L104.24867 178.09375L107.35805 176.92188L107.5143 176.92188L107.5143 185.5ZM111.09242 184.9375Q111.09242 184.65625 111.24867 184.46875Q111.42055 184.28125 111.74867 184.28125Q112.09242 184.28125 112.2643 184.46875Q112.43617 184.65625 112.43617 184.9375Q112.43617 185.20312 112.2643 185.39062Q112.09242 185.5625 111.74867 185.5625Q111.42055 185.5625 111.24867 185.39062Q111.09242 185.20312 111.09242 184.9375ZM117.5143 185.5L116.43617 185.5L116.43617 178.28125L114.24867 179.07812L114.24867 178.09375L117.35805 176.92188L117.5143 176.92188L117.5143 185.5ZM121.4518 181.21875L121.8893 176.96875L126.2643 176.96875L126.2643 177.96875L122.81117 177.96875L122.54555 180.29688Q123.18617 179.92188 123.98305 179.92188Q125.1393 179.92188 125.8268 180.70312Q126.5143 181.46875 126.5143 182.78125Q126.5143 184.09375 125.79555 184.85938Q125.09242 185.625 123.81117 185.625Q122.68617 185.625 121.96742 185.0Q121.24867 184.35938 121.15492 183.25L122.17055 183.25Q122.27992 183.98438 122.7018 184.35938Q123.12367 184.73438 123.81117 184.73438Q124.56117 184.73438 124.99867 184.21875Q125.43617 183.70312 125.43617 182.79688Q125.43617 181.9375 124.96742 181.42188Q124.49867 180.90625 123.71742 180.90625Q123.0143 180.90625 122.60805 181.20312L122.3268 181.4375L121.4518 181.21875ZM133.54555 185.5L127.9518 185.5L127.9518 184.71875L130.90492 181.4375Q131.56117 180.6875 131.81117 180.23438Q132.06117 179.76562 132.06117 179.26562Q132.06117 178.59375 131.65492 178.17188Q131.2643 177.73438 130.5768 177.73438Q129.77992 177.73438 129.3268 178.20312Q128.87367 178.65625 128.87367 179.48438L127.79555 179.48438Q127.79555 178.29688 128.54555 177.57812Q129.31117 176.84375 130.5768 176.84375Q131.77992 176.84375 132.46742 177.46875Q133.15492 178.09375 133.15492 179.14062Q133.15492 180.39062 131.54555 182.14062L129.2643 184.60938L133.54555 184.60938L133.54555 185.5Z" fill-rule="nonzero"/><path stroke="#4285f4" stroke-width="3.0" stroke-linejoin="round" stroke-linecap="round" d="M377.18655 270.21875L377.62405 265.96875L381.99905 265.96875L381.99905 266.96875L378.54593 266.96875L378.2803 269.29688Q378.92093 268.92188 379.7178 268.92188Q380.87405 268.92188 381.56155 269.70312Q382.24905 270.46875 382.24905 271.78125Q382.24905 273.09375 381.5303 273.85938Q380.82718 274.625 379.54593 274.625Q378.42093 274.625 377.70218 274.0Q376.98343 273.35938 376.88968 272.25L377.9053 272.25Q378.01468 272.98438 378.43655 273.35938Q378.85843 273.73438 379.54593 273.73438Q380.29593 273.73438 380.73343 273.21875Q381.17093 272.70312 381.17093 271.79688Q381.17093 270.9375 380.70218 270.42188Q380.23343 269.90625 379.45218 269.90625Q378.74905 269.90625 378.3428 270.20312L378.06155 270.4375L377.18655 270.21875ZM389.20218 266.57812L385.67093 274.5L384.5303 274.5L388.04593 266.85938L383.43655 266.85938L383.43655 265.96875L389.20218 265.96875L389.20218 266.57812ZM390.82718 273.9375Q390.82718 273.65625 390.98343 273.46875Q391.1553 273.28125 391.48343 273.28125Q391.82718 273.28125 391.99905 273.46875Q392.17093 273.65625 392.17093 273.9375Q392.17093 274.20312 391.99905 274.39062Q391.82718 274.5625 391.48343 274.5625Q391.1553 274.5625 390.98343 274.39062Q390.82718 274.20312 390.82718 273.9375ZM397.95218 265.96875L397.95218 266.875L397.74905 266.875Q396.48343 266.90625 395.73343 267.64062Q394.98343 268.35938 394.85843 269.67188Q395.54593 268.90625 396.70218 268.90625Q397.81155 268.90625 398.48343 269.6875Q399.1553 270.46875 399.1553 271.71875Q399.1553 273.03125 398.43655 273.82812Q397.7178 274.625 396.49905 274.625Q395.2803 274.625 394.51468 273.6875Q393.76468 272.73438 393.76468 271.25L393.76468 270.84375Q393.76468 268.48438 394.76468 267.23438Q395.76468 265.98438 397.74905 265.96875L397.95218 265.96875ZM396.5303 269.8125Q395.9678 269.8125 395.49905 270.14062Q395.0303 270.46875 394.8428 270.98438L394.8428 271.375Q394.8428 272.4375 395.31155 273.07812Q395.79593 273.71875 396.49905 273.71875Q397.23343 273.71875 397.6553 273.1875Q398.07718 272.64062 398.07718 271.76562Q398.07718 270.89062 397.6553 270.35938Q397.23343 269.8125 396.5303 269.8125Z" fill-rule="nonzero"/><path fill="#ffffff" d="M377.18655 270.21875L377.62405 265.96875L381.99905 265.96875L381.99905 266.96875L378.54593 266.96875L378.2803 269.29688Q378.92093 268.92188 379.7178 268.92188Q380.87405 268.92188 381.56155 269.70312Q382.24905 270.46875 382.24905 271.78125Q382.24905 273.09375 381.5303 273.85938Q380.82718 274.625 379.54593 274.625Q378.42093 274.625 377.70218 274.0Q376.98343 273.35938 376.88968 272.25L377.9053 272.25Q378.01468 272.98438 378.43655 273.35938Q378.85843 273.73438 379.54593 273.73438Q380.29593 273.73438 380.73343 273.21875Q381.17093 272.70312 381.17093 271.79688Q381.17093 270.9375 380.70218 270.42188Q380.23343 269.90625 379.45218 269.90625Q378.74905 269.90625 378.3428 270.20312L378.06155 270.4375L377.18655 270.21875ZM389.20218 266.57812L385.67093 274.5L384.5303 274.5L388.04593 266.85938L383.43655 266.85938L383.43655 265.96875L389.20218 265.96875L389.20218 266.57812ZM390.82718 273.9375Q390.82718 273.65625 390.98343 273.46875Q391.1553 273.28125 391.48343 273.28125Q391.82718 273.28125 391.99905 273.46875Q392.17093 273.65625 392.17093 273.9375Q392.17093 274.20312 391.99905 274.39062Q391.82718 274.5625 391.48343 274.5625Q391.1553 274.5625 390.98343 274.39062Q390.82718 274.20312 390.82718 273.9375ZM397.95218 265.96875L397.95218 266.875L397.74905 266.875Q396.48343 266.90625 395.73343 267.64062Q394.98343 268.35938 394.85843 269.67188Q395.54593 268.90625 396.70218 268.90625Q397.81155 268.90625 398.48343 269.6875Q399.1553 270.46875 399.1553 271.71875Q399.1553 273.03125 398.43655 273.82812Q397.7178 274.625 396.49905 274.625Q395.2803 274.625 394.51468 273.6875Q393.76468 272.73438 393.76468 271.25L393.76468 270.84375Q393.76468 268.48438 394.76468 267.23438Q395.76468 265.98438 397.74905 265.96875L397.95218 265.96875ZM396.5303 269.8125Q395.9678 269.8125 395.49905 270.14062Q395.0303 270.46875 394.8428 270.98438L394.8428 271.375Q394.8428 272.4375 395.31155 273.07812Q395.79593 273.71875 396.49905 273.71875Q397.23343 273.71875 397.6553 273.1875Q398.07718 272.64062 398.07718 271.76562Q398.07718 270.89062 397.6553 270.35938Q397.23343 269.8125 396.5303 269.8125Z" fill-rule="nonzero"/><path stroke="#4285f4" stroke-width="3.0" stroke-linejoin="round" stroke-linecap="round" d="M693.1825 362.5L692.1044 362.5L692.1044 355.28125L689.9169 356.07812L689.9169 355.09375L693.02625 353.92188L693.1825 353.92188L693.1825 362.5ZM700.1825 362.5L699.1044 362.5L699.1044 355.28125L696.9169 356.07812L696.9169 355.09375L700.02625 353.92188L700.1825 353.92188L700.1825 362.5ZM704.12 358.21875L704.5575 353.96875L708.9325 353.96875L708.9325 354.96875L705.4794 354.96875L705.21375 357.29688Q705.8544 356.92188 706.65125 356.92188Q707.8075 356.92188 708.495 357.70312Q709.1825 358.46875 709.1825 359.78125Q709.1825 361.09375 708.46375 361.85938Q707.7606 362.625 706.4794 362.625Q705.3544 362.625 704.6356 362.0Q703.9169 361.35938 703.8231 360.25L704.83875 360.25Q704.9481 360.98438 705.37 361.35938Q705.7919 361.73438 706.4794 361.73438Q707.2294 361.73438 707.6669 361.21875Q708.1044 360.70312 708.1044 359.79688Q708.1044 358.9375 707.6356 358.42188Q707.1669 357.90625 706.3856 357.90625Q705.6825 357.90625 705.27625 358.20312L704.995 358.4375L704.12 358.21875ZM710.7606 361.9375Q710.7606 361.65625 710.9169 361.46875Q711.08875 361.28125 711.4169 361.28125Q711.7606 361.28125 711.9325 361.46875Q712.1044 361.65625 712.1044 361.9375Q712.1044 362.20312 711.9325 362.39062Q711.7606 362.5625 711.4169 362.5625Q711.08875 362.5625 710.9169 362.39062Q710.7606 362.20312 710.7606 361.9375ZM719.21375 362.5L713.62 362.5L713.62 361.71875L716.5731 358.4375Q717.2294 357.6875 717.4794 357.23438Q717.7294 356.76562 717.7294 356.26562Q717.7294 355.59375 717.3231 355.17188Q716.9325 354.73438 716.245 354.73438Q715.4481 354.73438 714.995 355.20312Q714.5419 355.65625 714.5419 356.48438L713.46375 356.48438Q713.46375 355.29688 714.21375 354.57812Q714.9794 353.84375 716.245 353.84375Q717.4481 353.84375 718.1356 354.46875Q718.8231 355.09375 718.8231 356.14062Q718.8231 357.39062 717.21375 359.14062L714.9325 361.60938L719.21375 361.60938L719.21375 362.5Z" fill-rule="nonzero"/><path fill="#ffffff" d="M693.1825 362.5L692.1044 362.5L692.1044 355.28125L689.9169 356.07812L689.9169 355.09375L693.02625 353.92188L693.1825 353.92188L693.1825 362.5ZM700.1825 362.5L699.1044 362.5L699.1044 355.28125L696.9169 356.07812L696.9169 355.09375L700.02625 353.92188L700.1825 353.92188L700.1825 362.5ZM704.12 358.21875L704.5575 353.96875L708.9325 353.96875L708.9325 354.96875L705.4794 354.96875L705.21375 357.29688Q705.8544 356.92188 706.65125 356.92188Q707.8075 356.92188 708.495 357.70312Q709.1825 358.46875 709.1825 359.78125Q709.1825 361.09375 708.46375 361.85938Q707.7606 362.625 706.4794 362.625Q705.3544 362.625 704.6356 362.0Q703.9169 361.35938 703.8231 360.25L704.83875 360.25Q704.9481 360.98438 705.37 361.35938Q705.7919 361.73438 706.4794 361.73438Q707.2294 361.73438 707.6669 361.21875Q708.1044 360.70312 708.1044 359.79688Q708.1044 358.9375 707.6356 358.42188Q707.1669 357.90625 706.3856 357.90625Q705.6825 357.90625 705.27625 358.20312L704.995 358.4375L704.12 358.21875ZM710.7606 361.9375Q710.7606 361.65625 710.9169 361.46875Q711.08875 361.28125 711.4169 361.28125Q711.7606 361.28125 711.9325 361.46875Q712.1044 361.65625 712.1044 361.9375Q712.1044 362.20312 711.9325 362.39062Q711.7606 362.5625 711.4169 362.5625Q711.08875 362.5625 710.9169 362.39062Q710.7606 362.20312 710.7606 361.9375ZM719.21375 362.5L713.62 362.5L713.62 361.71875L716.5731 358.4375Q717.2294 357.6875 717.4794 357.23438Q717.7294 356.76562 717.7294 356.26562Q717.7294 355.59375 717.3231 355.17188Q716.9325 354.73438 716.245 354.73438Q715.4481 354.73438 714.995 355.20312Q714.5419 355.65625 714.5419 356.48438L713.46375 356.48438Q713.46375 355.29688 714.21375 354.57812Q714.9794 353.84375 716.245 353.84375Q717.4481 353.84375 718.1356 354.46875Q718.8231 355.09375 718.8231 356.14062Q718.8231 357.39062 717.21375 359.14062L714.9325 361.60938L719.21375 361.60938L719.21375 362.5Z" fill-rule="nonzero"/><path stroke="#181818" stroke-width="3.0" stroke-linejoin="round" stroke-linecap="round" d="M145.11118 181.85938Q145.11118 183.76562 144.45493 184.70312Q143.8143 185.625 142.42368 185.625Q141.0643 185.625 140.40805 184.71875Q139.7518 183.8125 139.72055 182.0L139.72055 180.5625Q139.72055 178.67188 140.36118 177.76562Q141.01743 176.84375 142.40805 176.84375Q143.78305 176.84375 144.4393 177.73438Q145.09555 178.60938 145.11118 180.45312L145.11118 181.85938ZM144.01743 180.375Q144.01743 179.0 143.6268 178.375Q143.2518 177.73438 142.40805 177.73438Q141.57993 177.73438 141.1893 178.375Q140.8143 179.0 140.8143 180.29688L140.8143 182.03125Q140.8143 183.40625 141.20493 184.07812Q141.61118 184.73438 142.42368 184.73438Q143.22055 184.73438 143.61118 184.10938Q144.0018 183.48438 144.01743 182.15625L144.01743 180.375ZM146.89243 184.9375Q146.89243 184.65625 147.04868 184.46875Q147.22055 184.28125 147.54868 184.28125Q147.89243 184.28125 148.0643 184.46875Q148.23618 184.65625 148.23618 184.9375Q148.23618 185.20312 148.0643 185.39062Q147.89243 185.5625 147.54868 185.5625Q147.22055 185.5625 147.04868 185.39062Q146.89243 185.20312 146.89243 184.9375ZM155.11118 181.85938Q155.11118 183.76562 154.45493 184.70312Q153.8143 185.625 152.42368 185.625Q151.0643 185.625 150.40805 184.71875Q149.7518 183.8125 149.72055 182.0L149.72055 180.5625Q149.72055 178.67188 150.36118 177.76562Q151.01743 176.84375 152.40805 176.84375Q153.78305 176.84375 154.4393 177.73438Q155.09555 178.60938 155.11118 180.45312L155.11118 181.85938ZM154.01743 180.375Q154.01743 179.0 153.6268 178.375Q153.2518 177.73438 152.40805 177.73438Q151.57993 177.73438 151.1893 178.375Q150.8143 179.0 150.8143 180.29688L150.8143 182.03125Q150.8143 183.40625 151.20493 184.07812Q151.61118 184.73438 152.42368 184.73438Q153.22055 184.73438 153.61118 184.10938Q154.0018 183.48438 154.01743 182.15625L154.01743 180.375ZM162.34555 185.5L156.7518 185.5L156.7518 184.71875L159.70493 181.4375Q160.36118 180.6875 160.61118 180.23438Q160.86118 179.76562 160.86118 179.26562Q160.86118 178.59375 160.45493 178.17188Q160.0643 177.73438 159.3768 177.73438Q158.57993 177.73438 158.1268 178.20312Q157.67368 178.65625 157.67368 179.48438L156.59555 179.48438Q156.59555 178.29688 157.34555 177.57812Q158.11118 176.84375 159.3768 176.84375Q160.57993 176.84375 161.26743 177.46875Q161.95493 178.09375 161.95493 179.14062Q161.95493 180.39062 160.34555 182.14062L158.0643 184.60938L162.34555 184.60938L162.34555 185.5Z" fill-rule="nonzero"/><path fill="#db4437" d="M145.11118 181.85938Q145.11118 183.76562 144.45493 184.70312Q143.8143 185.625 142.42368 185.625Q141.0643 185.625 140.40805 184.71875Q139.7518 183.8125 139.72055 182.0L139.72055 180.5625Q139.72055 178.67188 140.36118 177.76562Q141.01743 176.84375 142.40805 176.84375Q143.78305 176.84375 144.4393 177.73438Q145.09555 178.60938 145.11118 180.45312L145.11118 181.85938ZM144.01743 180.375Q144.01743 179.0 143.6268 178.375Q143.2518 177.73438 142.40805 177.73438Q141.57993 177.73438 141.1893 178.375Q140.8143 179.0 140.8143 180.29688L140.8143 182.03125Q140.8143 183.40625 141.20493 184.07812Q141.61118 184.73438 142.42368 184.73438Q143.22055 184.73438 143.61118 184.10938Q144.0018 183.48438 144.01743 182.15625L144.01743 180.375ZM146.89243 184.9375Q146.89243 184.65625 147.04868 184.46875Q147.22055 184.28125 147.54868 184.28125Q147.89243 184.28125 148.0643 184.46875Q148.23618 184.65625 148.23618 184.9375Q148.23618 185.20312 148.0643 185.39062Q147.89243 185.5625 147.54868 185.5625Q147.22055 185.5625 147.04868 185.39062Q146.89243 185.20312 146.89243 184.9375ZM155.11118 181.85938Q155.11118 183.76562 154.45493 184.70312Q153.8143 185.625 152.42368 185.625Q151.0643 185.625 150.40805 184.71875Q149.7518 183.8125 149.72055 182.0L149.72055 180.5625Q149.72055 178.67188 150.36118 177.76562Q151.01743 176.84375 152.40805 176.84375Q153.78305 176.84375 154.4393 177.73438Q155.09555 178.60938 155.11118 180.45312L155.11118 181.85938ZM154.01743 180.375Q154.01743 179.0 153.6268 178.375Q153.2518 177.73438 152.40805 177.73438Q151.57993 177.73438 151.1893 178.375Q150.8143 179.0 150.8143 180.29688L150.8143 182.03125Q150.8143 183.40625 151.20493 184.07812Q151.61118 184.73438 152.42368 184.73438Q153.22055 184.73438 153.61118 184.10938Q154.0018 183.48438 154.01743 182.15625L154.01743 180.375ZM162.34555 185.5L156.7518 185.5L156.7518 184.71875L159.70493 181.4375Q160.36118 180.6875 160.61118 180.23438Q160.86118 179.76562 160.86118 179.26562Q160.86118 178.59375 160.45493 178.17188Q160.0643 177.73438 159.3768 177.73438Q158.57993 177.73438 158.1268 178.20312Q157.67368 178.65625 157.67368 179.48438L156.59555 179.48438Q156.59555 178.29688 157.34555 177.57812Q158.11118 176.84375 159.3768 176.84375Q160.57993 176.84375 161.26743 177.46875Q161.95493 178.09375 161.95493 179.14062Q161.95493 180.39062 160.34555 182.14062L158.0643 184.60938L162.34555 184.60938L162.34555 185.5Z" fill-rule="nonzero"/><path stroke="#181818" stroke-width="3.0" stroke-linejoin="round" stroke-linecap="round" d="M426.22302 270.85938Q426.22302 272.76562 425.56677 273.70312Q424.92615 274.625 423.53552 274.625Q422.17615 274.625 421.5199 273.71875Q420.86365 272.8125 420.8324 271.0L420.8324 269.5625Q420.8324 267.67188 421.47302 266.76562Q422.12927 265.84375 423.5199 265.84375Q424.8949 265.84375 425.55115 266.73438Q426.2074 267.60938 426.22302 269.45312L426.22302 270.85938ZM425.12927 269.375Q425.12927 268.0 424.73865 267.375Q424.36365 266.73438 423.5199 266.73438Q422.69177 266.73438 422.30115 267.375Q421.92615 268.0 421.92615 269.29688L421.92615 271.03125Q421.92615 272.40625 422.31677 273.07812Q422.72302 273.73438 423.53552 273.73438Q424.3324 273.73438 424.72302 273.10938Q425.11365 272.48438 425.12927 271.15625L425.12927 269.375ZM428.00427 273.9375Q428.00427 273.65625 428.16052 273.46875Q428.3324 273.28125 428.66052 273.28125Q429.00427 273.28125 429.17615 273.46875Q429.34802 273.65625 429.34802 273.9375Q429.34802 274.20312 429.17615 274.39062Q429.00427 274.5625 428.66052 274.5625Q428.3324 274.5625 428.16052 274.39062Q428.00427 274.20312 428.00427 273.9375ZM435.12927 265.96875L435.12927 266.875L434.92615 266.875Q433.66052 266.90625 432.91052 267.64062Q432.16052 268.35938 432.03552 269.67188Q432.72302 268.90625 433.87927 268.90625Q434.98865 268.90625 435.66052 269.6875Q436.3324 270.46875 436.3324 271.71875Q436.3324 273.03125 435.61365 273.82812Q434.8949 274.625 433.67615 274.625Q432.4574 274.625 431.69177 273.6875Q430.94177 272.73438 430.94177 271.25L430.94177 270.84375Q430.94177 268.48438 431.94177 267.23438Q432.94177 265.98438 434.92615 265.96875L435.12927 265.96875ZM433.7074 269.8125Q433.1449 269.8125 432.67615 270.14062Q432.2074 270.46875 432.0199 270.98438L432.0199 271.375Q432.0199 272.4375 432.48865 273.07812Q432.97302 273.71875 433.67615 273.71875Q434.41052 273.71875 434.8324 273.1875Q435.25427 272.64062 435.25427 271.76562Q435.25427 270.89062 434.8324 270.35938Q434.41052 269.8125 433.7074 269.8125ZM443.22302 270.85938Q443.22302 272.76562 442.56677 273.70312Q441.92615 274.625 440.53552 274.625Q439.17615 274.625 438.5199 273.71875Q437.86365 272.8125 437.8324 271.0L437.8324 269.5625Q437.8324 267.67188 438.47302 266.76562Q439.12927 265.84375 440.5199 265.84375Q441.8949 265.84375 442.55115 266.73438Q443.2074 267.60938 443.22302 269.45312L443.22302 270.85938ZM442.12927 269.375Q442.12927 268.0 441.73865 267.375Q441.36365 266.73438 440.5199 266.73438Q439.69177 266.73438 439.30115 267.375Q438.92615 268.0 438.92615 269.29688L438.92615 271.03125Q438.92615 272.40625 439.31677 273.07812Q439.72302 273.73438 440.53552 273.73438Q441.3324 273.73438 441.72302 273.10938Q442.11365 272.48438 442.12927 271.15625L442.12927 269.375ZM450.05115 268.1875Q450.05115 268.82812 449.7074 269.32812Q449.36365 269.82812 448.80115 270.10938Q449.4574 270.39062 449.84802 270.95312Q450.23865 271.5 450.23865 272.20312Q450.23865 273.29688 449.48865 273.96875Q448.75427 274.625 447.53552 274.625Q446.30115 274.625 445.55115 273.96875Q444.81677 273.29688 444.81677 272.20312Q444.81677 271.5 445.19177 270.95312Q445.56677 270.39062 446.23865 270.10938Q445.67615 269.82812 445.34802 269.32812Q445.0199 268.82812 445.0199 268.1875Q445.0199 267.10938 445.7074 266.48438Q446.3949 265.84375 447.53552 265.84375Q448.66052 265.84375 449.34802 266.48438Q450.05115 267.10938 450.05115 268.1875ZM449.16052 272.17188Q449.16052 271.45312 448.7074 271.01562Q448.25427 270.5625 447.5199 270.5625Q446.78552 270.5625 446.3324 271.01562Q445.8949 271.45312 445.8949 272.1875Q445.8949 272.90625 446.3324 273.32812Q446.7699 273.73438 447.53552 273.73438Q448.28552 273.73438 448.72302 273.3125Q449.16052 272.89062 449.16052 272.17188ZM447.53552 266.73438Q446.8949 266.73438 446.48865 267.14062Q446.09802 267.53125 446.09802 268.21875Q446.09802 268.85938 446.48865 269.26562Q446.87927 269.67188 447.5199 269.67188Q448.17615 269.67188 448.56677 269.26562Q448.9574 268.85938 448.9574 268.21875Q448.9574 267.5625 448.55115 267.15625Q448.1449 266.73438 447.53552 266.73438Z" fill-rule="nonzero"/><path fill="#db4437" d="M426.22302 270.85938Q426.22302 272.76562 425.56677 273.70312Q424.92615 274.625 423.53552 274.625Q422.17615 274.625 421.5199 273.71875Q420.86365 272.8125 420.8324 271.0L420.8324 269.5625Q420.8324 267.67188 421.47302 266.76562Q422.12927 265.84375 423.5199 265.84375Q424.8949 265.84375 425.55115 266.73438Q426.2074 267.60938 426.22302 269.45312L426.22302 270.85938ZM425.12927 269.375Q425.12927 268.0 424.73865 267.375Q424.36365 266.73438 423.5199 266.73438Q422.69177 266.73438 422.30115 267.375Q421.92615 268.0 421.92615 269.29688L421.92615 271.03125Q421.92615 272.40625 422.31677 273.07812Q422.72302 273.73438 423.53552 273.73438Q424.3324 273.73438 424.72302 273.10938Q425.11365 272.48438 425.12927 271.15625L425.12927 269.375ZM428.00427 273.9375Q428.00427 273.65625 428.16052 273.46875Q428.3324 273.28125 428.66052 273.28125Q429.00427 273.28125 429.17615 273.46875Q429.34802 273.65625 429.34802 273.9375Q429.34802 274.20312 429.17615 274.39062Q429.00427 274.5625 428.66052 274.5625Q428.3324 274.5625 428.16052 274.39062Q428.00427 274.20312 428.00427 273.9375ZM435.12927 265.96875L435.12927 266.875L434.92615 266.875Q433.66052 266.90625 432.91052 267.64062Q432.16052 268.35938 432.03552 269.67188Q432.72302 268.90625 433.87927 268.90625Q434.98865 268.90625 435.66052 269.6875Q436.3324 270.46875 436.3324 271.71875Q436.3324 273.03125 435.61365 273.82812Q434.8949 274.625 433.67615 274.625Q432.4574 274.625 431.69177 273.6875Q430.94177 272.73438 430.94177 271.25L430.94177 270.84375Q430.94177 268.48438 431.94177 267.23438Q432.94177 265.98438 434.92615 265.96875L435.12927 265.96875ZM433.7074 269.8125Q433.1449 269.8125 432.67615 270.14062Q432.2074 270.46875 432.0199 270.98438L432.0199 271.375Q432.0199 272.4375 432.48865 273.07812Q432.97302 273.71875 433.67615 273.71875Q434.41052 273.71875 434.8324 273.1875Q435.25427 272.64062 435.25427 271.76562Q435.25427 270.89062 434.8324 270.35938Q434.41052 269.8125 433.7074 269.8125ZM443.22302 270.85938Q443.22302 272.76562 442.56677 273.70312Q441.92615 274.625 440.53552 274.625Q439.17615 274.625 438.5199 273.71875Q437.86365 272.8125 437.8324 271.0L437.8324 269.5625Q437.8324 267.67188 438.47302 266.76562Q439.12927 265.84375 440.5199 265.84375Q441.8949 265.84375 442.55115 266.73438Q443.2074 267.60938 443.22302 269.45312L443.22302 270.85938ZM442.12927 269.375Q442.12927 268.0 441.73865 267.375Q441.36365 266.73438 440.5199 266.73438Q439.69177 266.73438 439.30115 267.375Q438.92615 268.0 438.92615 269.29688L438.92615 271.03125Q438.92615 272.40625 439.31677 273.07812Q439.72302 273.73438 440.53552 273.73438Q441.3324 273.73438 441.72302 273.10938Q442.11365 272.48438 442.12927 271.15625L442.12927 269.375ZM450.05115 268.1875Q450.05115 268.82812 449.7074 269.32812Q449.36365 269.82812 448.80115 270.10938Q449.4574 270.39062 449.84802 270.95312Q450.23865 271.5 450.23865 272.20312Q450.23865 273.29688 449.48865 273.96875Q448.75427 274.625 447.53552 274.625Q446.30115 274.625 445.55115 273.96875Q444.81677 273.29688 444.81677 272.20312Q444.81677 271.5 445.19177 270.95312Q445.56677 270.39062 446.23865 270.10938Q445.67615 269.82812 445.34802 269.32812Q445.0199 268.82812 445.0199 268.1875Q445.0199 267.10938 445.7074 266.48438Q446.3949 265.84375 447.53552 265.84375Q448.66052 265.84375 449.34802 266.48438Q450.05115 267.10938 450.05115 268.1875ZM449.16052 272.17188Q449.16052 271.45312 448.7074 271.01562Q448.25427 270.5625 447.5199 270.5625Q446.78552 270.5625 446.3324 271.01562Q445.8949 271.45312 445.8949 272.1875Q445.8949 272.90625 446.3324 273.32812Q446.7699 273.73438 447.53552 273.73438Q448.28552 273.73438 448.72302 273.3125Q449.16052 272.89062 449.16052 272.17188ZM447.53552 266.73438Q446.8949 266.73438 446.48865 267.14062Q446.09802 267.53125 446.09802 268.21875Q446.09802 268.85938 446.48865 269.26562Q446.87927 269.67188 447.5199 269.67188Q448.17615 269.67188 448.56677 269.26562Q448.9574 268.85938 448.9574 268.21875Q448.9574 267.5625 448.55115 267.15625Q448.1449 266.73438 447.53552 266.73438Z" fill-rule="nonzero"/><path stroke="#181818" stroke-width="3.0" stroke-linejoin="round" stroke-linecap="round" d="M747.6922 362.5L746.6141 362.5L746.6141 355.28125L744.4266 356.07812L744.4266 355.09375L747.53595 353.92188L747.6922 353.92188L747.6922 362.5ZM751.2703 361.9375Q751.2703 361.65625 751.4266 361.46875Q751.59845 361.28125 751.9266 361.28125Q752.2703 361.28125 752.4422 361.46875Q752.6141 361.65625 752.6141 361.9375Q752.6141 362.20312 752.4422 362.39062Q752.2703 362.5625 751.9266 362.5625Q751.59845 362.5625 751.4266 362.39062Q751.2703 362.20312 751.2703 361.9375ZM759.72345 362.5L754.1297 362.5L754.1297 361.71875L757.0828 358.4375Q757.7391 357.6875 757.9891 357.23438Q758.2391 356.76562 758.2391 356.26562Q758.2391 355.59375 757.8328 355.17188Q757.4422 354.73438 756.7547 354.73438Q755.9578 354.73438 755.5047 355.20312Q755.0516 355.65625 755.0516 356.48438L753.97345 356.48438Q753.97345 355.29688 754.72345 354.57812Q755.4891 353.84375 756.7547 353.84375Q757.9578 353.84375 758.6453 354.46875Q759.3328 355.09375 759.3328 356.14062Q759.3328 357.39062 757.72345 359.14062L755.4422 361.60938L759.72345 361.60938L759.72345 362.5ZM766.4891 358.85938Q766.4891 360.76562 765.8328 361.70312Q765.1922 362.625 763.8016 362.625Q762.4422 362.625 761.78595 361.71875Q761.1297 360.8125 761.09845 359.0L761.09845 357.5625Q761.09845 355.67188 761.7391 354.76562Q762.3953 353.84375 763.78595 353.84375Q765.16095 353.84375 765.8172 354.73438Q766.47345 355.60938 766.4891 357.45312L766.4891 358.85938ZM765.3953 357.375Q765.3953 356.0 765.0047 355.375Q764.6297 354.73438 763.78595 354.73438Q762.9578 354.73438 762.5672 355.375Q762.1922 356.0 762.1922 357.29688L762.1922 359.03125Q762.1922 360.40625 762.5828 361.07812Q762.9891 361.73438 763.8016 361.73438Q764.59845 361.73438 764.9891 361.10938Q765.3797 360.48438 765.3953 359.15625L765.3953 357.375ZM773.3172 356.1875Q773.3172 356.82812 772.97345 357.32812Q772.6297 357.82812 772.0672 358.10938Q772.72345 358.39062 773.1141 358.95312Q773.5047 359.5 773.5047 360.20312Q773.5047 361.29688 772.7547 361.96875Q772.0203 362.625 770.8016 362.625Q769.5672 362.625 768.8172 361.96875Q768.0828 361.29688 768.0828 360.20312Q768.0828 359.5 768.4578 358.95312Q768.8328 358.39062 769.5047 358.10938Q768.9422 357.82812 768.6141 357.32812Q768.28595 356.82812 768.28595 356.1875Q768.28595 355.10938 768.97345 354.48438Q769.66095 353.84375 770.8016 353.84375Q771.9266 353.84375 772.6141 354.48438Q773.3172 355.10938 773.3172 356.1875ZM772.4266 360.17188Q772.4266 359.45312 771.97345 359.01562Q771.5203 358.5625 770.78595 358.5625Q770.0516 358.5625 769.59845 359.01562Q769.16095 359.45312 769.16095 360.1875Q769.16095 360.90625 769.59845 361.32812Q770.03595 361.73438 770.8016 361.73438Q771.5516 361.73438 771.9891 361.3125Q772.4266 360.89062 772.4266 360.17188ZM770.8016 354.73438Q770.16095 354.73438 769.7547 355.14062Q769.3641 355.53125 769.3641 356.21875Q769.3641 356.85938 769.7547 357.26562Q770.1453 357.67188 770.78595 357.67188Q771.4422 357.67188 771.8328 357.26562Q772.22345 356.85938 772.22345 356.21875Q772.22345 355.5625 771.8172 355.15625Q771.41095 354.73438 770.8016 354.73438Z" fill-rule="nonzero"/><path fill="#db4437" d="M747.6922 362.5L746.6141 362.5L746.6141 355.28125L744.4266 356.07812L744.4266 355.09375L747.53595 353.92188L747.6922 353.92188L747.6922 362.5ZM751.2703 361.9375Q751.2703 361.65625 751.4266 361.46875Q751.59845 361.28125 751.9266 361.28125Q752.2703 361.28125 752.4422 361.46875Q752.6141 361.65625 752.6141 361.9375Q752.6141 362.20312 752.4422 362.39062Q752.2703 362.5625 751.9266 362.5625Q751.59845 362.5625 751.4266 362.39062Q751.2703 362.20312 751.2703 361.9375ZM759.72345 362.5L754.1297 362.5L754.1297 361.71875L757.0828 358.4375Q757.7391 357.6875 757.9891 357.23438Q758.2391 356.76562 758.2391 356.26562Q758.2391 355.59375 757.8328 355.17188Q757.4422 354.73438 756.7547 354.73438Q755.9578 354.73438 755.5047 355.20312Q755.0516 355.65625 755.0516 356.48438L753.97345 356.48438Q753.97345 355.29688 754.72345 354.57812Q755.4891 353.84375 756.7547 353.84375Q757.9578 353.84375 758.6453 354.46875Q759.3328 355.09375 759.3328 356.14062Q759.3328 357.39062 757.72345 359.14062L755.4422 361.60938L759.72345 361.60938L759.72345 362.5ZM766.4891 358.85938Q766.4891 360.76562 765.8328 361.70312Q765.1922 362.625 763.8016 362.625Q762.4422 362.625 761.78595 361.71875Q761.1297 360.8125 761.09845 359.0L761.09845 357.5625Q761.09845 355.67188 761.7391 354.76562Q762.3953 353.84375 763.78595 353.84375Q765.16095 353.84375 765.8172 354.73438Q766.47345 355.60938 766.4891 357.45312L766.4891 358.85938ZM765.3953 357.375Q765.3953 356.0 765.0047 355.375Q764.6297 354.73438 763.78595 354.73438Q762.9578 354.73438 762.5672 355.375Q762.1922 356.0 762.1922 357.29688L762.1922 359.03125Q762.1922 360.40625 762.5828 361.07812Q762.9891 361.73438 763.8016 361.73438Q764.59845 361.73438 764.9891 361.10938Q765.3797 360.48438 765.3953 359.15625L765.3953 357.375ZM773.3172 356.1875Q773.3172 356.82812 772.97345 357.32812Q772.6297 357.82812 772.0672 358.10938Q772.72345 358.39062 773.1141 358.95312Q773.5047 359.5 773.5047 360.20312Q773.5047 361.29688 772.7547 361.96875Q772.0203 362.625 770.8016 362.625Q769.5672 362.625 768.8172 361.96875Q768.0828 361.29688 768.0828 360.20312Q768.0828 359.5 768.4578 358.95312Q768.8328 358.39062 769.5047 358.10938Q768.9422 357.82812 768.6141 357.32812Q768.28595 356.82812 768.28595 356.1875Q768.28595 355.10938 768.97345 354.48438Q769.66095 353.84375 770.8016 353.84375Q771.9266 353.84375 772.6141 354.48438Q773.3172 355.10938 773.3172 356.1875ZM772.4266 360.17188Q772.4266 359.45312 771.97345 359.01562Q771.5203 358.5625 770.78595 358.5625Q770.0516 358.5625 769.59845 359.01562Q769.16095 359.45312 769.16095 360.1875Q769.16095 360.90625 769.59845 361.32812Q770.03595 361.73438 770.8016 361.73438Q771.5516 361.73438 771.9891 361.3125Q772.4266 360.89062 772.4266 360.17188ZM770.8016 354.73438Q770.16095 354.73438 769.7547 355.14062Q769.3641 355.53125 769.3641 356.21875Q769.3641 356.85938 769.7547 357.26562Q770.1453 357.67188 770.78595 357.67188Q771.4422 357.67188 771.8328 357.26562Q772.22345 356.85938 772.22345 356.21875Q772.22345 355.5625 771.8172 355.15625Q771.41095 354.73438 770.8016 354.73438Z" fill-rule="nonzero"/><path fill="#d5d5d5" d="M405.0 465.35312Q403.5625 464.93124 402.89062 464.32187Q402.23438 463.7125 402.23438 462.82187Q402.23438 461.82187 403.03125 461.16562Q403.84375 460.49374 405.14062 460.49374Q406.01562 460.49374 406.70312 460.8375Q407.39062 461.18124 407.76562 461.775Q408.15625 462.36874 408.15625 463.0875L407.01562 463.0875Q407.01562 462.30624 406.51562 461.86874Q406.03125 461.43124 405.14062 461.43124Q404.3125 461.43124 403.84375 461.80624Q403.375 462.16562 403.375 462.80624Q403.375 463.3375 403.8125 463.69687Q404.26562 464.05624 405.32812 464.35312Q406.39062 464.65 406.98438 465.00937Q407.59375 465.36874 407.875 465.85312Q408.17188 466.3375 408.17188 466.97812Q408.17188 468.025 407.35938 468.65Q406.54688 469.275 405.20312 469.275Q404.3125 469.275 403.54688 468.93124Q402.79688 468.5875 402.375 468.00937Q401.96875 467.41562 401.96875 466.68124L403.09375 466.68124Q403.09375 467.44687 403.67188 467.9Q404.25 468.35312 405.20312 468.35312Q406.09375 468.35312 406.5625 467.99374Q407.03125 467.61874 407.03125 466.99374Q407.03125 466.36874 406.59375 466.025Q406.15625 465.68124 405.0 465.35312ZM410.5 469.15L409.42188 469.15L409.42188 462.80624L410.5 462.80624L410.5 469.15ZM409.32812 461.13437Q409.32812 460.86874 409.48438 460.68124Q409.65625 460.49374 409.96875 460.49374Q410.28125 460.49374 410.4375 460.68124Q410.60938 460.86874 410.60938 461.13437Q410.60938 461.38437 410.4375 461.57187Q410.28125 461.74374 409.96875 461.74374Q409.65625 461.74374 409.48438 461.57187Q409.32812 461.38437 409.32812 461.13437ZM413.34375 468.25937L417.04688 468.25937L417.04688 469.15L412.01562 469.15L412.01562 468.35312L415.51562 463.7125L412.0625 463.7125L412.0625 462.80624L416.875 462.80624L416.875 463.57187L413.34375 468.25937ZM420.95312 469.275Q419.65625 469.275 418.84375 468.43124Q418.04688 467.57187 418.04688 466.15L418.04688 465.9625Q418.04688 465.00937 418.40625 464.275Q418.76562 463.525 419.40625 463.11874Q420.0625 462.69687 420.8125 462.69687Q422.04688 462.69687 422.73438 463.50937Q423.42188 464.32187 423.42188 465.8375L423.42188 466.29062L419.125 466.29062Q419.15625 467.22812 419.67188 467.80624Q420.20312 468.38437 421.01562 468.38437Q421.57812 468.38437 421.96875 468.15Q422.375 467.91562 422.6875 467.525L423.34375 468.04062Q422.54688 469.275 420.95312 469.275ZM420.8125 463.5875Q420.15625 463.5875 419.70312 464.07187Q419.26562 464.54062 419.17188 465.4L422.34375 465.4L422.34375 465.32187Q422.29688 464.49374 421.89062 464.04062Q421.5 463.5875 420.8125 463.5875ZM427.28125 465.68124Q427.28125 464.36874 427.625 463.15Q427.98438 461.93124 428.6875 460.93124Q429.39062 459.93124 430.15625 459.525L430.375 460.24374Q429.51562 460.9 428.96875 462.24374Q428.42188 463.5875 428.375 465.25937L428.35938 465.75937Q428.35938 468.025 429.1875 469.68124Q429.6875 470.68124 430.375 471.24374L430.15625 471.9Q429.375 471.47812 428.65625 470.44687Q427.28125 468.4625 427.28125 465.68124ZM432.5 469.15L431.42188 469.15L431.42188 462.80624L432.5 462.80624L432.5 469.15ZM431.32812 461.13437Q431.32812 460.86874 431.48438 460.68124Q431.65625 460.49374 431.96875 460.49374Q432.28125 460.49374 432.4375 460.68124Q432.60938 460.86874 432.60938 461.13437Q432.60938 461.38437 432.4375 461.57187Q432.28125 461.74374 431.96875 461.74374Q431.65625 461.74374 431.48438 461.57187Q431.32812 461.38437 431.32812 461.13437ZM435.34375 462.80624L435.375 463.60312Q436.10938 462.69687 437.28125 462.69687Q439.29688 462.69687 439.3125 464.9625L439.3125 469.15L438.21875 469.15L438.21875 464.94687Q438.21875 464.275 437.90625 463.94687Q437.60938 463.61874 436.95312 463.61874Q436.42188 463.61874 436.01562 463.9Q435.625 464.18124 435.40625 464.63437L435.40625 469.15L434.32812 469.15L434.32812 462.80624L435.34375 462.80624ZM446.65625 465.18124L445.60938 466.25937L445.60938 469.15L444.48438 469.15L444.48438 460.61874L445.60938 460.61874L445.60938 464.8375L449.40625 460.61874L450.76562 460.61874L447.40625 464.38437L451.03125 469.15L449.6875 469.15L446.65625 465.18124ZM452.48438 469.15L452.48438 460.61874L455.28125 460.61874Q456.67188 460.61874 457.35938 461.19687Q458.0625 461.75937 458.0625 462.88437Q458.0625 463.49374 457.71875 463.9625Q457.39062 464.41562 456.79688 464.66562Q457.5 464.85312 457.89062 465.4Q458.29688 465.93124 458.29688 466.68124Q458.29688 467.8375 457.54688 468.49374Q456.8125 469.15 455.45312 469.15L452.48438 469.15ZM453.60938 465.16562L453.60938 468.22812L455.46875 468.22812Q456.26562 468.22812 456.71875 467.82187Q457.17188 467.41562 457.17188 466.69687Q457.17188 465.16562 455.48438 465.16562L453.60938 465.16562ZM453.60938 464.25937L455.3125 464.25937Q456.04688 464.25937 456.48438 463.9Q456.9375 463.525 456.9375 462.88437Q456.9375 462.18124 456.53125 461.86874Q456.125 461.54062 455.28125 461.54062L453.60938 461.54062L453.60938 464.25937ZM461.82812 465.74374Q461.82812 467.05624 461.48438 468.25937Q461.14062 469.44687 460.42188 470.4625Q459.71875 471.47812 458.95312 471.9L458.71875 471.24374Q459.625 470.55624 460.17188 469.10312Q460.71875 467.63437 460.73438 465.86874L460.73438 465.68124Q460.73438 464.44687 460.46875 463.38437Q460.21875 462.32187 459.75 461.49374Q459.29688 460.65 458.71875 460.18124L458.95312 459.525Q459.71875 459.94687 460.42188 460.94687Q461.125 461.94687 461.46875 463.16562Q461.82812 464.36874 461.82812 465.74374Z" fill-rule="nonzero"/><path fill="#d5d5d5" d="M36.849995 296.11353L36.849995 297.23853L28.318745 297.23853L28.318745 296.11353L36.849995 296.11353ZM30.506245 293.4729L31.30312 293.44165Q30.39687 292.70728 30.39687 291.5354Q30.39687 289.51978 32.662495 289.50415L36.849995 289.50415L36.849995 290.5979L32.64687 290.5979Q31.974995 290.5979 31.64687 290.9104Q31.318745 291.20728 31.318745 291.86353Q31.318745 292.39478 31.599995 292.80103Q31.881245 293.19165 32.33437 293.4104L36.849995 293.4104L36.849995 294.48853L30.506245 294.48853L30.506245 293.4729ZM35.162495 283.80103Q34.724995 283.80103 34.49062 284.14478Q34.24062 284.4729 34.068745 285.30103Q33.89687 286.11353 33.64687 286.5979Q33.39687 287.08228 33.068745 287.31665Q32.724995 287.5354 32.256245 287.5354Q31.474995 287.5354 30.943745 286.87915Q30.39687 286.2229 30.39687 285.19165Q30.39687 284.11353 30.95937 283.45728Q31.506245 282.7854 32.36562 282.7854L32.36562 283.86353Q31.92812 283.86353 31.61562 284.25415Q31.287495 284.62915 31.287495 285.19165Q31.287495 285.7854 31.55312 286.12915Q31.80312 286.45728 32.20937 286.45728Q32.599995 286.45728 32.80312 286.14478Q33.006245 285.83228 33.193745 285.01978Q33.36562 284.20728 33.61562 283.70728Q33.86562 283.20728 34.224995 282.9729Q34.58437 282.7229 35.08437 282.7229Q35.943745 282.7229 36.45937 283.4104Q36.974995 284.08228 36.974995 285.1604Q36.974995 285.92603 36.70937 286.51978Q36.42812 287.0979 35.943745 287.42603Q35.45937 287.75415 34.89687 287.75415L34.89687 286.67603Q35.443745 286.64478 35.77187 286.23853Q36.08437 285.83228 36.08437 285.1604Q36.08437 284.55103 35.83437 284.17603Q35.58437 283.80103 35.162495 283.80103ZM36.974995 278.86353Q36.974995 280.1604 36.131245 280.9729Q35.27187 281.76978 33.849995 281.76978L33.662495 281.76978Q32.70937 281.76978 31.974995 281.4104Q31.224995 281.05103 30.818745 280.4104Q30.39687 279.75415 30.39687 279.00415Q30.39687 277.76978 31.20937 277.08228Q32.02187 276.39478 33.537495 276.39478L33.99062 276.39478L33.99062 280.69165Q34.92812 280.6604 35.506245 280.14478Q36.08437 279.61353 36.08437 278.80103Q36.08437 278.23853 35.849995 277.8479Q35.61562 277.44165 35.224995 277.12915L35.74062 276.4729Q36.974995 277.26978 36.974995 278.86353ZM31.287495 279.00415Q31.287495 279.6604 31.77187 280.11353Q32.24062 280.55103 33.099995 280.64478L33.099995 277.4729L33.02187 277.4729Q32.193745 277.51978 31.74062 277.92603Q31.287495 278.31665 31.287495 279.00415ZM31.474995 272.42603Q31.443745 272.67603 31.443745 272.95728Q31.443745 274.0354 32.349995 274.4104L36.849995 274.4104L36.849995 275.48853L30.506245 275.48853L30.506245 274.44165L31.24062 274.42603Q30.39687 273.89478 30.39687 272.9104Q30.39687 272.5979 30.474995 272.42603L31.474995 272.42603ZM28.974995 270.01978L30.506245 270.01978L30.506245 268.8479L31.349995 268.8479L31.349995 270.01978L35.27187 270.01978Q35.662495 270.01978 35.849995 269.86353Q36.037495 269.70728 36.037495 269.33228Q36.037495 269.14478 35.974995 268.81665L36.849995 268.81665Q36.974995 269.23853 36.974995 269.64478Q36.974995 270.36353 36.537495 270.73853Q36.08437 271.11353 35.27187 271.11353L31.349995 271.11353L31.349995 272.26978L30.506245 272.26978L30.506245 271.11353L28.974995 271.11353L28.974995 270.01978ZM35.162495 263.80103Q34.724995 263.80103 34.49062 264.14478Q34.24062 264.4729 34.068745 265.30103Q33.89687 266.11353 33.64687 266.5979Q33.39687 267.08228 33.068745 267.31665Q32.724995 267.5354 32.256245 267.5354Q31.474995 267.5354 30.943745 266.87915Q30.39687 266.2229 30.39687 265.19165Q30.39687 264.11353 30.95937 263.45728Q31.506245 262.7854 32.36562 262.7854L32.36562 263.86353Q31.92812 263.86353 31.61562 264.25415Q31.287495 264.62915 31.287495 265.19165Q31.287495 265.7854 31.55312 266.12915Q31.80312 266.45728 32.20937 266.45728Q32.599995 266.45728 32.80312 266.14478Q33.006245 265.83228 33.193745 265.01978Q33.36562 264.20728 33.61562 263.70728Q33.86562 263.20728 34.224995 262.9729Q34.58437 262.7229 35.08437 262.7229Q35.943745 262.7229 36.45937 263.4104Q36.974995 264.08228 36.974995 265.1604Q36.974995 265.92603 36.70937 266.51978Q36.42812 267.0979 35.943745 267.42603Q35.45937 267.75415 34.89687 267.75415L34.89687 266.67603Q35.443745 266.64478 35.77187 266.23853Q36.08437 265.83228 36.08437 265.1604Q36.08437 264.55103 35.83437 264.17603Q35.58437 263.80103 35.162495 263.80103Z" fill-rule="nonzero"/><path fill="#a2a2a2" d="M76.11562 185.75945L75.0375 185.75945L75.0375 178.5407L72.85 179.33757L72.85 178.3532L75.95937 177.18132L76.11562 177.18132L76.11562 185.75945Z" fill-rule="nonzero"/><path fill="#a2a2a2" d="M66.05312 270.03543L66.49062 265.78543L70.86562 265.78543L70.86562 266.78543L67.4125 266.78543L67.14687 269.11356Q67.7875 268.73856 68.58437 268.73856Q69.74062 268.73856 70.42812 269.5198Q71.11562 270.28543 71.11562 271.59793Q71.11562 272.91043 70.39687 273.67606Q69.69375 274.44168 68.4125 274.44168Q67.2875 274.44168 66.56875 273.81668Q65.85 273.17606 65.75625 272.06668L66.77187 272.06668Q66.88125 272.80106 67.30312 273.17606Q67.725 273.55106 68.4125 273.55106Q69.1625 273.55106 69.6 273.03543Q70.0375 272.5198 70.0375 271.61356Q70.0375 270.75418 69.56875 270.23856Q69.1 269.72293 68.31875 269.72293Q67.61562 269.72293 67.20937 270.0198L66.92812 270.25418L66.05312 270.03543ZM77.9125 270.67606Q77.9125 272.5823 77.25625 273.5198Q76.61562 274.44168 75.225 274.44168Q73.86562 274.44168 73.20937 273.53543Q72.55312 272.62918 72.52187 270.81668L72.52187 269.37918Q72.52187 267.48856 73.1625 266.5823Q73.81875 265.66043 75.20937 265.66043Q76.58437 265.66043 77.24062 266.55106Q77.89687 267.42606 77.9125 269.2698L77.9125 270.67606ZM76.81875 269.19168Q76.81875 267.81668 76.42812 267.19168Q76.05312 266.55106 75.20937 266.55106Q74.38125 266.55106 73.99062 267.19168Q73.61562 267.81668 73.61562 269.11356L73.61562 270.84793Q73.61562 272.22293 74.00625 272.8948Q74.4125 273.55106 75.225 273.55106Q76.02187 273.55106 76.4125 272.92606Q76.80312 272.30106 76.81875 270.97293L76.81875 269.19168Z" fill-rule="nonzero"/><path fill="#a2a2a2" d="M62.115623 362.87387L61.0375 362.87387L61.0375 355.65512L58.85 356.452L58.85 355.46762L61.959373 354.29575L62.115623 354.29575L62.115623 362.87387ZM70.9125 359.23325Q70.9125 361.1395 70.25625 362.077Q69.61562 362.99887 68.225 362.99887Q66.86562 362.99887 66.20937 362.09262Q65.55312 361.18637 65.52187 359.37387L65.52187 357.93637Q65.52187 356.04575 66.1625 355.1395Q66.81875 354.21762 68.20937 354.21762Q69.58437 354.21762 70.24062 355.10825Q70.89687 355.98325 70.9125 357.827L70.9125 359.23325ZM69.81875 357.74887Q69.81875 356.37387 69.42812 355.74887Q69.05312 355.10825 68.20937 355.10825Q67.38125 355.10825 66.99062 355.74887Q66.61562 356.37387 66.61562 357.67075L66.61562 359.40512Q66.61562 360.78012 67.00625 361.452Q67.4125 362.10825 68.225 362.10825Q69.02187 362.10825 69.4125 361.48325Q69.80312 360.85825 69.81875 359.53012L69.81875 357.74887ZM77.9125 359.23325Q77.9125 361.1395 77.25625 362.077Q76.61562 362.99887 75.225 362.99887Q73.86562 362.99887 73.20937 362.09262Q72.55312 361.18637 72.52187 359.37387L72.52187 357.93637Q72.52187 356.04575 73.1625 355.1395Q73.81875 354.21762 75.20937 354.21762Q76.58437 354.21762 77.24062 355.10825Q77.89687 355.98325 77.9125 357.827L77.9125 359.23325ZM76.81875 357.74887Q76.81875 356.37387 76.42812 355.74887Q76.05312 355.10825 75.20937 355.10825Q74.38125 355.10825 73.99062 355.74887Q73.61562 356.37387 73.61562 357.67075L73.61562 359.40512Q73.61562 360.78012 74.00625 361.452Q74.4125 362.10825 75.225 362.10825Q76.02187 362.10825 76.4125 361.48325Q76.80312 360.85825 76.81875 359.53012L76.81875 357.74887Z" fill-rule="nonzero"/><path fill="#a2a2a2" d="M87.4125 432.50937Q87.4125 434.41562 86.75625 435.35312Q86.11562 436.275 84.725 436.275Q83.36562 436.275 82.70937 435.36874Q82.05312 434.4625 82.02187 432.65L82.02187 431.2125Q82.02187 429.32187 82.6625 428.41562Q83.31875 427.49374 84.70937 427.49374Q86.08437 427.49374 86.74062 428.38437Q87.39687 429.25937 87.4125 431.10312L87.4125 432.50937ZM86.31875 431.025Q86.31875 429.65 85.92812 429.025Q85.55312 428.38437 84.70937 428.38437Q83.88125 428.38437 83.49062 429.025Q83.11562 429.65 83.11562 430.94687L83.11562 432.68124Q83.11562 434.05624 83.50625 434.72812Q83.9125 435.38437 84.725 435.38437Q85.52187 435.38437 85.9125 434.75937Q86.30312 434.13437 86.31875 432.80624L86.31875 431.025Z" fill-rule="nonzero"/><path fill="#a2a2a2" d="M223.00688 436.15L217.41313 436.15L217.41313 435.36874L220.36626 432.0875Q221.0225 431.3375 221.2725 430.88437Q221.5225 430.41562 221.5225 429.91562Q221.5225 429.24374 221.11626 428.82187Q220.72563 428.38437 220.03813 428.38437Q219.24126 428.38437 218.78813 428.85312Q218.335 429.30624 218.335 430.13437L217.25688 430.13437Q217.25688 428.94687 218.00688 428.22812Q218.7725 427.49374 220.03813 427.49374Q221.24126 427.49374 221.92876 428.11874Q222.61626 428.74374 222.61626 429.79062Q222.61626 431.04062 221.00688 432.79062L218.72563 435.25937L223.00688 435.25937L223.00688 436.15ZM224.91313 431.86874L225.35063 427.61874L229.72563 427.61874L229.72563 428.61874L226.2725 428.61874L226.00688 430.94687Q226.6475 430.57187 227.44438 430.57187Q228.60063 430.57187 229.28813 431.35312Q229.97563 432.11874 229.97563 433.43124Q229.97563 434.74374 229.25688 435.50937Q228.55376 436.275 227.2725 436.275Q226.1475 436.275 225.42876 435.65Q224.71 435.00937 224.61626 433.9L225.63188 433.9Q225.74126 434.63437 226.16313 435.00937Q226.585 435.38437 227.2725 435.38437Q228.0225 435.38437 228.46 434.86874Q228.8975 434.35312 228.8975 433.44687Q228.8975 432.5875 228.42876 432.07187Q227.96 431.55624 227.17876 431.55624Q226.47563 431.55624 226.06938 431.85312L225.78813 432.0875L224.91313 431.86874Z" fill-rule="nonzero"/><path fill="#a2a2a2" d="M356.77313 431.86874L357.21063 427.61874L361.58563 427.61874L361.58563 428.61874L358.1325 428.61874L357.86688 430.94687Q358.5075 430.57187 359.30438 430.57187Q360.46063 430.57187 361.14813 431.35312Q361.83563 432.11874 361.83563 433.43124Q361.83563 434.74374 361.11688 435.50937Q360.41376 436.275 359.1325 436.275Q358.0075 436.275 357.28876 435.65Q356.57 435.00937 356.47626 433.9L357.49188 433.9Q357.60126 434.63437 358.02313 435.00937Q358.445 435.38437 359.1325 435.38437Q359.8825 435.38437 360.32 434.86874Q360.7575 434.35312 360.7575 433.44687Q360.7575 432.5875 360.28876 432.07187Q359.82 431.55624 359.03876 431.55624Q358.33563 431.55624 357.92938 431.85312L357.64813 432.0875L356.77313 431.86874ZM368.6325 432.50937Q368.6325 434.41562 367.97626 435.35312Q367.33563 436.275 365.945 436.275Q364.58563 436.275 363.92938 435.36874Q363.27313 434.4625 363.24188 432.65L363.24188 431.2125Q363.24188 429.32187 363.8825 428.41562Q364.53876 427.49374 365.92938 427.49374Q367.30438 427.49374 367.96063 428.38437Q368.61688 429.25937 368.6325 431.10312L368.6325 432.50937ZM367.53876 431.025Q367.53876 429.65 367.14813 429.025Q366.77313 428.38437 365.92938 428.38437Q365.10126 428.38437 364.71063 429.025Q364.33563 429.65 364.33563 430.94687L364.33563 432.68124Q364.33563 434.05624 364.72626 434.72812Q365.1325 435.38437 365.945 435.38437Q366.74188 435.38437 367.1325 434.75937Q367.52313 434.13437 367.53876 432.80624L367.53876 431.025Z" fill-rule="nonzero"/><path fill="#a2a2a2" d="M500.64874 428.22812L497.1175 436.15L495.97687 436.15L499.4925 428.50937L494.88312 428.50937L494.88312 427.61874L500.64874 427.61874L500.64874 428.22812ZM502.63312 431.86874L503.07062 427.61874L507.44562 427.61874L507.44562 428.61874L503.9925 428.61874L503.72687 430.94687Q504.3675 430.57187 505.16437 430.57187Q506.32062 430.57187 507.00812 431.35312Q507.69562 432.11874 507.69562 433.43124Q507.69562 434.74374 506.97687 435.50937Q506.27374 436.275 504.9925 436.275Q503.8675 436.275 503.14874 435.65Q502.43 435.00937 502.33624 433.9L503.35187 433.9Q503.46124 434.63437 503.88312 435.00937Q504.305 435.38437 504.9925 435.38437Q505.7425 435.38437 506.18 434.86874Q506.6175 434.35312 506.6175 433.44687Q506.6175 432.5875 506.14874 432.07187Q505.68 431.55624 504.89874 431.55624Q504.19562 431.55624 503.78937 431.85312L503.50812 432.0875L502.63312 431.86874Z" fill-rule="nonzero"/><path fill="#a2a2a2" d="M634.0556 436.15L632.9775 436.15L632.9775 428.93124L630.79 429.72812L630.79 428.74374L633.89935 427.57187L634.0556 427.57187L634.0556 436.15ZM642.8525 432.50937Q642.8525 434.41562 642.1962 435.35312Q641.5556 436.275 640.165 436.275Q638.8056 436.275 638.14935 435.36874Q637.4931 434.4625 637.46185 432.65L637.46185 431.2125Q637.46185 429.32187 638.1025 428.41562Q638.7587 427.49374 640.14935 427.49374Q641.52435 427.49374 642.1806 428.38437Q642.83685 429.25937 642.8525 431.10312L642.8525 432.50937ZM641.7587 431.025Q641.7587 429.65 641.3681 429.025Q640.9931 428.38437 640.14935 428.38437Q639.3212 428.38437 638.9306 429.025Q638.5556 429.65 638.5556 430.94687L638.5556 432.68124Q638.5556 434.05624 638.9462 434.72812Q639.3525 435.38437 640.165 435.38437Q640.96185 435.38437 641.3525 434.75937Q641.7431 434.13437 641.7587 432.80624L641.7587 431.025ZM649.8525 432.50937Q649.8525 434.41562 649.1962 435.35312Q648.5556 436.275 647.165 436.275Q645.8056 436.275 645.14935 435.36874Q644.4931 434.4625 644.46185 432.65L644.46185 431.2125Q644.46185 429.32187 645.1025 428.41562Q645.7587 427.49374 647.14935 427.49374Q648.52435 427.49374 649.1806 428.38437Q649.83685 429.25937 649.8525 431.10312L649.8525 432.50937ZM648.7587 431.025Q648.7587 429.65 648.3681 429.025Q647.9931 428.38437 647.14935 428.38437Q646.3212 428.38437 645.9306 429.025Q645.5556 429.65 645.5556 430.94687L645.5556 432.68124Q645.5556 434.05624 645.9462 434.72812Q646.3525 435.38437 647.165 435.38437Q647.96185 435.38437 648.3525 434.75937Q648.7431 434.13437 648.7587 432.80624L648.7587 431.025Z" fill-rule="nonzero"/><path fill="#a2a2a2" d="M772.91565 436.15L771.8375 436.15L771.8375 428.93124L769.65 429.72812L769.65 428.74374L772.7594 427.57187L772.91565 427.57187L772.91565 436.15ZM781.9469 436.15L776.35315 436.15L776.35315 435.36874L779.3063 432.0875Q779.9625 431.3375 780.2125 430.88437Q780.4625 430.41562 780.4625 429.91562Q780.4625 429.24374 780.0563 428.82187Q779.66565 428.38437 778.97815 428.38437Q778.1813 428.38437 777.72815 428.85312Q777.275 429.30624 777.275 430.13437L776.1969 430.13437Q776.1969 428.94687 776.9469 428.22812Q777.7125 427.49374 778.97815 427.49374Q780.1813 427.49374 780.8688 428.11874Q781.5563 428.74374 781.5563 429.79062Q781.5563 431.04062 779.9469 432.79062L777.66565 435.25937L781.9469 435.25937L781.9469 436.15ZM783.85315 431.86874L784.29065 427.61874L788.66565 427.61874L788.66565 428.61874L785.2125 428.61874L784.9469 430.94687Q785.5875 430.57187 786.3844 430.57187Q787.54065 430.57187 788.22815 431.35312Q788.91565 432.11874 788.91565 433.43124Q788.91565 434.74374 788.1969 435.50937Q787.4938 436.275 786.2125 436.275Q785.0875 436.275 784.3688 435.65Q783.65 435.00937 783.5563 433.9L784.5719 433.9Q784.6813 434.63437 785.10315 435.00937Q785.525 435.38437 786.2125 435.38437Q786.9625 435.38437 787.4 434.86874Q787.8375 434.35312 787.8375 433.44687Q787.8375 432.5875 787.3688 432.07187Q786.9 431.55624 786.1188 431.55624Q785.41565 431.55624 785.0094 431.85312L784.72815 432.0875L783.85315 431.86874Z" fill-rule="nonzero"/><path fill="#4285f4" d="M258.5 92.416664C258.5 91.86438 258.94772 91.416664 259.5 91.416664L269.5 91.416664C270.05228 91.416664 270.5 91.86438 270.5 92.416664L270.5 102.416664C270.5 102.96895 270.05228 103.416664 269.5 103.416664L259.5 103.416664C258.94772 103.416664 258.5 102.96895 258.5 102.416664Z" fill-rule="nonzero"/><path fill="#a2a2a2" d="M280.9375 93.385414L283.73438 100.33854L286.51562 93.385414L287.98438 93.385414L287.98438 101.916664L286.85938 101.916664L286.85938 98.58854L286.96875 95.010414L284.15625 101.916664L283.29688 101.916664L280.5 95.02604L280.60938 98.58854L280.60938 101.916664L279.48438 101.916664L279.48438 93.385414L280.9375 93.385414ZM290.5 101.916664L289.42188 101.916664L289.42188 95.572914L290.5 95.572914L290.5 101.916664ZM289.32812 93.90104Q289.32812 93.635414 289.48438 93.447914Q289.65625 93.260414 289.96875 93.260414Q290.28125 93.260414 290.4375 93.447914Q290.60938 93.635414 290.60938 93.90104Q290.60938 94.15104 290.4375 94.33854Q290.28125 94.510414 289.96875 94.510414Q289.65625 94.510414 289.48438 94.33854Q289.32812 94.15104 289.32812 93.90104ZM293.34375 95.572914L293.375 96.36979Q294.10938 95.46354 295.28125 95.46354Q297.29688 95.46354 297.3125 97.729164L297.3125 101.916664L296.21875 101.916664L296.21875 97.71354Q296.21875 97.041664 295.90625 96.71354Q295.60938 96.385414 294.95312 96.385414Q294.42188 96.385414 294.01562 96.666664Q293.625 96.947914 293.40625 97.40104L293.40625 101.916664L292.32812 101.916664L292.32812 95.572914L293.34375 95.572914ZM300.5 101.916664L299.42188 101.916664L299.42188 95.572914L300.5 95.572914L300.5 101.916664ZM299.32812 93.90104Q299.32812 93.635414 299.48438 93.447914Q299.65625 93.260414 299.96875 93.260414Q300.28125 93.260414 300.4375 93.447914Q300.60938 93.635414 300.60938 93.90104Q300.60938 94.15104 300.4375 94.33854Q300.28125 94.510414 299.96875 94.510414Q299.65625 94.510414 299.48438 94.33854Q299.32812 94.15104 299.32812 93.90104ZM303.34375 95.572914L303.375 96.27604Q304.0625 95.46354 305.25 95.46354Q306.57812 95.46354 307.0625 96.479164Q307.375 96.02604 307.875 95.74479Q308.39062 95.46354 309.07812 95.46354Q311.17188 95.46354 311.20312 97.666664L311.20312 101.916664L310.125 101.916664L310.125 97.729164Q310.125 97.05729 309.8125 96.729164Q309.5 96.385414 308.76562 96.385414Q308.15625 96.385414 307.75 96.74479Q307.35938 97.104164 307.29688 97.71354L307.29688 101.916664L306.21875 101.916664L306.21875 97.760414Q306.21875 96.385414 304.85938 96.385414Q303.79688 96.385414 303.40625 97.291664L303.40625 101.916664L302.3125 101.916664L302.3125 95.572914L303.34375 95.572914ZM317.23438 101.291664Q316.60938 102.041664 315.375 102.041664Q314.35938 102.041664 313.82812 101.447914Q313.29688 100.854164 313.29688 99.697914L313.29688 95.572914L314.375 95.572914L314.375 99.666664Q314.375 101.11979 315.54688 101.11979Q316.79688 101.11979 317.20312 100.18229L317.20312 95.572914L318.29688 95.572914L318.29688 101.916664L317.26562 101.916664L317.23438 101.291664ZM321.34375 95.572914L321.375 96.27604Q322.0625 95.46354 323.25 95.46354Q324.57812 95.46354 325.0625 96.479164Q325.375 96.02604 325.875 95.74479Q326.39062 95.46354 327.07812 95.46354Q329.17188 95.46354 329.20312 97.666664L329.20312 101.916664L328.125 101.916664L328.125 97.729164Q328.125 97.05729 327.8125 96.729164Q327.5 96.385414 326.76562 96.385414Q326.15625 96.385414 325.75 96.74479Q325.35938 97.104164 325.29688 97.71354L325.29688 101.916664L324.21875 101.916664L324.21875 97.760414Q324.21875 96.385414 322.85938 96.385414Q321.79688 96.385414 321.40625 97.291664L321.40625 101.916664L320.3125 101.916664L320.3125 95.572914L321.34375 95.572914ZM339.20312 98.15104L335.60938 98.15104L335.60938 101.916664L334.48438 101.916664L334.48438 93.385414L339.78125 93.385414L339.78125 94.30729L335.60938 94.30729L335.60938 97.229164L339.20312 97.229164L339.20312 98.15104ZM342.5 101.916664L341.42188 101.916664L341.42188 95.572914L342.5 95.572914L342.5 101.916664ZM341.32812 93.90104Q341.32812 93.635414 341.48438 93.447914Q341.65625 93.260414 341.96875 93.260414Q342.28125 93.260414 342.4375 93.447914Q342.60938 93.635414 342.60938 93.90104Q342.60938 94.15104 342.4375 94.33854Q342.28125 94.510414 341.96875 94.510414Q341.65625 94.510414 341.48438 94.33854Q341.32812 94.15104 341.32812 93.90104ZM345.5 101.916664L344.42188 101.916664L344.42188 92.916664L345.5 92.916664L345.5 101.916664ZM349.95312 102.041664Q348.65625 102.041664 347.84375 101.197914Q347.04688 100.33854 347.04688 98.916664L347.04688 98.729164Q347.04688 97.77604 347.40625 97.041664Q347.76562 96.291664 348.40625 95.885414Q349.0625 95.46354 349.8125 95.46354Q351.04688 95.46354 351.73438 96.27604Q352.42188 97.08854 352.42188 98.604164L352.42188 99.05729L348.125 99.05729Q348.15625 99.99479 348.67188 100.572914Q349.20312 101.15104 350.01562 101.15104Q350.57812 101.15104 350.96875 100.916664Q351.375 100.68229 351.6875 100.291664L352.34375 100.80729Q351.54688 102.041664 349.95312 102.041664ZM349.8125 96.354164Q349.15625 96.354164 348.70312 96.83854Q348.26562 97.30729 348.17188 98.166664L351.34375 98.166664L351.34375 98.08854Q351.29688 97.260414 350.89062 96.80729Q350.5 96.354164 349.8125 96.354164ZM359.0 98.11979Q357.5625 97.697914 356.89062 97.08854Q356.23438 96.479164 356.23438 95.58854Q356.23438 94.58854 357.03125 93.93229Q357.84375 93.260414 359.14062 93.260414Q360.01562 93.260414 360.70312 93.604164Q361.39062 93.947914 361.76562 94.541664Q362.15625 95.135414 362.15625 95.854164L361.01562 95.854164Q361.01562 95.072914 360.51562 94.635414Q360.03125 94.197914 359.14062 94.197914Q358.3125 94.197914 357.84375 94.572914Q357.375 94.93229 357.375 95.572914Q357.375 96.104164 357.8125 96.46354Q358.26562 96.822914 359.32812 97.11979Q360.39062 97.416664 360.98438 97.77604Q361.59375 98.135414 361.875 98.61979Q362.17188 99.104164 362.17188 99.74479Q362.17188 100.791664 361.35938 101.416664Q360.54688 102.041664 359.20312 102.041664Q358.3125 102.041664 357.54688 101.697914Q356.79688 101.354164 356.375 100.77604Q355.96875 100.18229 355.96875 99.447914L357.09375 99.447914Q357.09375 100.21354 357.67188 100.666664Q358.25 101.11979 359.20312 101.11979Q360.09375 101.11979 360.5625 100.760414Q361.03125 100.385414 361.03125 99.760414Q361.03125 99.135414 360.59375 98.791664Q360.15625 98.447914 359.0 98.11979ZM364.5 101.916664L363.42188 101.916664L363.42188 95.572914L364.5 95.572914L364.5 101.916664ZM363.32812 93.90104Q363.32812 93.635414 363.48438 93.447914Q363.65625 93.260414 363.96875 93.260414Q364.28125 93.260414 364.4375 93.447914Q364.60938 93.635414 364.60938 93.90104Q364.60938 94.15104 364.4375 94.33854Q364.28125 94.510414 363.96875 94.510414Q363.65625 94.510414 363.48438 94.33854Q363.32812 94.15104 363.32812 93.90104ZM367.34375 101.02604L371.04688 101.02604L371.04688 101.916664L366.01562 101.916664L366.01562 101.11979L369.51562 96.479164L366.0625 96.479164L366.0625 95.572914L370.875 95.572914L370.875 96.33854L367.34375 101.02604ZM374.95312 102.041664Q373.65625 102.041664 372.84375 101.197914Q372.04688 100.33854 372.04688 98.916664L372.04688 98.729164Q372.04688 97.77604 372.40625 97.041664Q372.76562 96.291664 373.40625 95.885414Q374.0625 95.46354 374.8125 95.46354Q376.04688 95.46354 376.73438 96.27604Q377.42188 97.08854 377.42188 98.604164L377.42188 99.05729L373.125 99.05729Q373.15625 99.99479 373.67188 100.572914Q374.20312 101.15104 375.01562 101.15104Q375.57812 101.15104 375.96875 100.916664Q376.375 100.68229 376.6875 100.291664L377.34375 100.80729Q376.54688 102.041664 374.95312 102.041664ZM374.8125 96.354164Q374.15625 96.354164 373.70312 96.83854Q373.26562 97.30729 373.17188 98.166664L376.34375 98.166664L376.34375 98.08854Q376.29688 97.260414 375.89062 96.80729Q375.5 96.354164 374.8125 96.354164Z" fill-rule="nonzero"/><path fill="#db4437" d="M393.5 92.416664C393.5 91.86438 393.94772 91.416664 394.5 91.416664L404.5 91.416664C405.05228 91.416664 405.5 91.86438 405.5 92.416664L405.5 102.416664C405.5 102.96895 405.05228 103.416664 404.5 103.416664L394.5 103.416664C393.94772 103.416664 393.5 102.96895 393.5 102.416664Z" fill-rule="nonzero"/><path fill="#a2a2a2" d="M417.0 98.11979Q415.5625 97.697914 414.89062 97.08854Q414.23438 96.479164 414.23438 95.58854Q414.23438 94.58854 415.03125 93.93229Q415.84375 93.260414 417.14062 93.260414Q418.01562 93.260414 418.70312 93.604164Q419.39062 93.947914 419.76562 94.541664Q420.15625 95.135414 420.15625 95.854164L419.01562 95.854164Q419.01562 95.072914 418.51562 94.635414Q418.03125 94.197914 417.14062 94.197914Q416.3125 94.197914 415.84375 94.572914Q415.375 94.93229 415.375 95.572914Q415.375 96.104164 415.8125 96.46354Q416.26562 96.822914 417.32812 97.11979Q418.39062 97.416664 418.98438 97.77604Q419.59375 98.135414 419.875 98.61979Q420.17188 99.104164 420.17188 99.74479Q420.17188 100.791664 419.35938 101.416664Q418.54688 102.041664 417.20312 102.041664Q416.3125 102.041664 415.54688 101.697914Q414.79688 101.354164 414.375 100.77604Q413.96875 100.18229 413.96875 99.447914L415.09375 99.447914Q415.09375 100.21354 415.67188 100.666664Q416.25 101.11979 417.20312 101.11979Q418.09375 101.11979 418.5625 100.760414Q419.03125 100.385414 419.03125 99.760414Q419.03125 99.135414 418.59375 98.791664Q418.15625 98.447914 417.0 98.11979ZM422.79688 94.041664L422.79688 95.572914L423.96875 95.572914L423.96875 96.416664L422.79688 96.416664L422.79688 100.33854Q422.79688 100.729164 422.95312 100.916664Q423.10938 101.104164 423.48438 101.104164Q423.67188 101.104164 424.0 101.041664L424.0 101.916664Q423.57812 102.041664 423.17188 102.041664Q422.45312 102.041664 422.07812 101.604164Q421.70312 101.15104 421.70312 100.33854L421.70312 96.416664L420.54688 96.416664L420.54688 95.572914L421.70312 95.572914L421.70312 94.041664L422.79688 94.041664ZM428.39062 96.541664Q428.14062 96.510414 427.85938 96.510414Q426.78125 96.510414 426.40625 97.416664L426.40625 101.916664L425.32812 101.916664L425.32812 95.572914L426.375 95.572914L426.39062 96.30729Q426.92188 95.46354 427.90625 95.46354Q428.21875 95.46354 428.39062 95.541664L428.39062 96.541664ZM430.5 101.916664L429.42188 101.916664L429.42188 95.572914L430.5 95.572914L430.5 101.916664ZM429.32812 93.90104Q429.32812 93.635414 429.48438 93.447914Q429.65625 93.260414 429.96875 93.260414Q430.28125 93.260414 430.4375 93.447914Q430.60938 93.635414 430.60938 93.90104Q430.60938 94.15104 430.4375 94.33854Q430.28125 94.510414 429.96875 94.510414Q429.65625 94.510414 429.48438 94.33854Q429.32812 94.15104 429.32812 93.90104ZM433.34375 95.572914L433.375 96.36979Q434.10938 95.46354 435.28125 95.46354Q437.29688 95.46354 437.3125 97.729164L437.3125 101.916664L436.21875 101.916664L436.21875 97.71354Q436.21875 97.041664 435.90625 96.71354Q435.60938 96.385414 434.95312 96.385414Q434.42188 96.385414 434.01562 96.666664Q433.625 96.947914 433.40625 97.40104L433.40625 101.916664L432.32812 101.916664L432.32812 95.572914L433.34375 95.572914ZM439.0625 98.697914Q439.0625 97.21354 439.75 96.33854Q440.4375 95.46354 441.5625 95.46354Q442.71875 95.46354 443.375 96.27604L443.42188 95.572914L444.42188 95.572914L444.42188 101.760414Q444.42188 102.99479 443.6875 103.697914Q442.95312 104.416664 441.73438 104.416664Q441.04688 104.416664 440.39062 104.11979Q439.73438 103.822914 439.39062 103.322914L439.95312 102.666664Q440.64062 103.52604 441.65625 103.52604Q442.4375 103.52604 442.875 103.072914Q443.32812 102.635414 443.32812 101.822914L443.32812 101.27604Q442.67188 102.041664 441.54688 102.041664Q440.4375 102.041664 439.75 101.15104Q439.0625 100.24479 439.0625 98.697914ZM440.15625 98.822914Q440.15625 99.885414 440.59375 100.510414Q441.03125 101.11979 441.82812 101.11979Q442.84375 101.11979 443.32812 100.18229L443.32812 97.291664Q442.82812 96.385414 441.82812 96.385414Q441.04688 96.385414 440.59375 96.99479Q440.15625 97.604164 440.15625 98.822914ZM446.48438 101.916664L446.48438 93.385414L448.90625 93.385414Q450.01562 93.385414 450.85938 93.885414Q451.71875 94.36979 452.1875 95.27604Q452.65625 96.18229 452.65625 97.36979L452.65625 97.90104Q452.65625 99.11979 452.1875 100.02604Q451.73438 100.93229 450.85938 101.416664Q450.0 101.90104 448.85938 101.916664L446.48438 101.916664ZM447.60938 94.30729L447.60938 100.99479L448.79688 100.99479Q450.09375 100.99479 450.8125 100.197914Q451.54688 99.385414 451.54688 97.885414L451.54688 97.385414Q451.54688 95.93229 450.85938 95.135414Q450.1875 94.322914 448.92188 94.30729L447.60938 94.30729ZM454.48438 101.916664L454.48438 93.385414L457.28125 93.385414Q458.67188 93.385414 459.35938 93.96354Q460.0625 94.52604 460.0625 95.65104Q460.0625 96.260414 459.71875 96.729164Q459.39062 97.18229 458.79688 97.43229Q459.5 97.61979 459.89062 98.166664Q460.29688 98.697914 460.29688 99.447914Q460.29688 100.604164 459.54688 101.260414Q458.8125 101.916664 457.45312 101.916664L454.48438 101.916664ZM455.60938 97.93229L455.60938 100.99479L457.46875 100.99479Q458.26562 100.99479 458.71875 100.58854Q459.17188 100.18229 459.17188 99.46354Q459.17188 97.93229 457.48438 97.93229L455.60938 97.93229ZM455.60938 97.02604L457.3125 97.02604Q458.04688 97.02604 458.48438 96.666664Q458.9375 96.291664 458.9375 95.65104Q458.9375 94.947914 458.53125 94.635414Q458.125 94.30729 457.28125 94.30729L455.60938 94.30729L455.60938 97.02604ZM471.04688 97.93229Q471.04688 99.18229 470.625 100.11979Q470.20312 101.041664 469.42188 101.541664Q468.65625 102.041664 467.625 102.041664Q466.625 102.041664 465.84375 101.541664Q465.0625 101.041664 464.625 100.135414Q464.20312 99.21354 464.1875 97.99479L464.1875 97.385414Q464.1875 96.15104 464.60938 95.21354Q465.04688 94.27604 465.82812 93.77604Q466.60938 93.260414 467.625 93.260414Q468.64062 93.260414 469.42188 93.760414Q470.20312 94.260414 470.625 95.197914Q471.04688 96.135414 471.04688 97.385414L471.04688 97.93229ZM469.9375 97.36979Q469.9375 95.854164 469.32812 95.041664Q468.71875 94.229164 467.625 94.229164Q466.54688 94.229164 465.9375 95.041664Q465.32812 95.854164 465.3125 97.291664L465.3125 97.93229Q465.3125 99.40104 465.92188 100.24479Q466.54688 101.072914 467.625 101.072914Q468.71875 101.072914 469.3125 100.291664Q469.92188 99.49479 469.9375 98.010414L469.9375 97.36979ZM474.40625 100.447914L475.98438 95.572914L477.09375 95.572914L474.8125 101.916664L473.98438 101.916664L471.6875 95.572914L472.79688 95.572914L474.40625 100.447914ZM480.95312 102.041664Q479.65625 102.041664 478.84375 101.197914Q478.04688 100.33854 478.04688 98.916664L478.04688 98.729164Q478.04688 97.77604 478.40625 97.041664Q478.76562 96.291664 479.40625 95.885414Q480.0625 95.46354 480.8125 95.46354Q482.04688 95.46354 482.73438 96.27604Q483.42188 97.08854 483.42188 98.604164L483.42188 99.05729L479.125 99.05729Q479.15625 99.99479 479.67188 100.572914Q480.20312 101.15104 481.01562 101.15104Q481.57812 101.15104 481.96875 100.916664Q482.375 100.68229 482.6875 100.291664L483.34375 100.80729Q482.54688 102.041664 480.95312 102.041664ZM480.8125 96.354164Q480.15625 96.354164 479.70312 96.83854Q479.26562 97.30729 479.17188 98.166664L482.34375 98.166664L482.34375 98.08854Q482.29688 97.260414 481.89062 96.80729Q481.5 96.354164 480.8125 96.354164ZM487.39062 96.541664Q487.14062 96.510414 486.85938 96.510414Q485.78125 96.510414 485.40625 97.416664L485.40625 101.916664L484.32812 101.916664L484.32812 95.572914L485.375 95.572914L485.39062 96.30729Q485.92188 95.46354 486.90625 95.46354Q487.21875 95.46354 487.39062 95.541664L487.39062 96.541664ZM489.40625 96.33854Q490.125 95.46354 491.28125 95.46354Q493.29688 95.46354 493.3125 97.729164L493.3125 101.916664L492.21875 101.916664L492.21875 97.71354Q492.21875 97.041664 491.90625 96.71354Q491.60938 96.385414 490.95312 96.385414Q490.42188 96.385414 490.01562 96.666664Q489.625 96.947914 489.40625 97.40104L489.40625 101.916664L488.32812 101.916664L488.32812 92.916664L489.40625 92.916664L489.40625 96.33854ZM497.95312 102.041664Q496.65625 102.041664 495.84375 101.197914Q495.04688 100.33854 495.04688 98.916664L495.04688 98.729164Q495.04688 97.77604 495.40625 97.041664Q495.76562 96.291664 496.40625 95.885414Q497.0625 95.46354 497.8125 95.46354Q499.04688 95.46354 499.73438 96.27604Q500.42188 97.08854 500.42188 98.604164L500.42188 99.05729L496.125 99.05729Q496.15625 99.99479 496.67188 100.572914Q497.20312 101.15104 498.01562 101.15104Q498.57812 101.15104 498.96875 100.916664Q499.375 100.68229 499.6875 100.291664L500.34375 100.80729Q499.54688 102.041664 497.95312 102.041664ZM497.8125 96.354164Q497.15625 96.354164 496.70312 96.83854Q496.26562 97.30729 496.17188 98.166664L499.34375 98.166664L499.34375 98.08854Q499.29688 97.260414 498.89062 96.80729Q498.5 96.354164 497.8125 96.354164ZM505.23438 101.916664Q505.14062 101.729164 505.07812 101.24479Q504.32812 102.041664 503.28125 102.041664Q502.34375 102.041664 501.73438 101.510414Q501.14062 100.979164 501.14062 100.15104Q501.14062 99.166664 501.89062 98.61979Q502.64062 98.072914 504.01562 98.072914L505.0625 98.072914L505.0625 97.572914Q505.0625 97.010414 504.71875 96.68229Q504.39062 96.33854 503.71875 96.33854Q503.14062 96.33854 502.75 96.635414Q502.35938 96.916664 502.35938 97.33854L501.26562 97.33854Q501.26562 96.854164 501.59375 96.416664Q501.9375 95.979164 502.51562 95.729164Q503.09375 95.46354 503.78125 95.46354Q504.89062 95.46354 505.5 96.010414Q506.125 96.55729 506.15625 97.510414L506.15625 100.43229Q506.15625 101.30729 506.375 101.822914L506.375 101.916664L505.23438 101.916664ZM503.4375 101.08854Q503.95312 101.08854 504.40625 100.822914Q504.85938 100.55729 505.0625 100.135414L505.0625 98.83854L504.21875 98.83854Q502.21875 98.83854 502.21875 100.010414Q502.21875 100.510414 502.5625 100.80729Q502.90625 101.08854 503.4375 101.08854ZM508.0625 98.697914Q508.0625 97.229164 508.75 96.354164Q509.4375 95.46354 510.5625 95.46354Q511.67188 95.46354 512.3281 96.21354L512.3281 92.916664L513.40625 92.916664L513.40625 101.916664L512.40625 101.916664L512.3594 101.229164Q511.70312 102.041664 510.54688 102.041664Q509.45312 102.041664 508.75 101.135414Q508.0625 100.229164 508.0625 98.77604L508.0625 98.697914ZM509.14062 98.822914Q509.14062 99.90104 509.57812 100.510414Q510.03125 101.11979 510.8125 101.11979Q511.84375 101.11979 512.3281 100.18229L512.3281 97.27604Q511.84375 96.385414 510.82812 96.385414Q510.03125 96.385414 509.57812 96.99479Q509.14062 97.604164 509.14062 98.822914ZM519.5 101.916664L518.4219 101.916664L518.4219 95.572914L519.5 95.572914L519.5 101.916664ZM518.3281 93.90104Q518.3281 93.635414 518.4844 93.447914Q518.65625 93.260414 518.96875 93.260414Q519.28125 93.260414 519.4375 93.447914Q519.6094 93.635414 519.6094 93.90104Q519.6094 94.15104 519.4375 94.33854Q519.28125 94.510414 518.96875 94.510414Q518.65625 94.510414 518.4844 94.33854Q518.3281 94.15104 518.3281 93.90104ZM522.34375 95.572914L522.375 96.36979Q523.1094 95.46354 524.28125 95.46354Q526.2969 95.46354 526.3125 97.729164L526.3125 101.916664L525.21875 101.916664L525.21875 97.71354Q525.21875 97.041664 524.90625 96.71354Q524.6094 96.385414 523.9531 96.385414Q523.4219 96.385414 523.0156 96.666664Q522.625 96.947914 522.40625 97.40104L522.40625 101.916664L521.3281 101.916664L521.3281 95.572914L522.34375 95.572914ZM533.65625 97.947914L532.6094 99.02604L532.6094 101.916664L531.4844 101.916664L531.4844 93.385414L532.6094 93.385414L532.6094 97.604164L536.40625 93.385414L537.7656 93.385414L534.40625 97.15104L538.03125 101.916664L536.6875 101.916664L533.65625 97.947914ZM539.4844 101.916664L539.4844 93.385414L542.28125 93.385414Q543.6719 93.385414 544.3594 93.96354Q545.0625 94.52604 545.0625 95.65104Q545.0625 96.260414 544.71875 96.729164Q544.3906 97.18229 543.7969 97.43229Q544.5 97.61979 544.8906 98.166664Q545.2969 98.697914 545.2969 99.447914Q545.2969 100.604164 544.5469 101.260414Q543.8125 101.916664 542.4531 101.916664L539.4844 101.916664ZM540.6094 97.93229L540.6094 100.99479L542.46875 100.99479Q543.2656 100.99479 543.71875 100.58854Q544.1719 100.18229 544.1719 99.46354Q544.1719 97.93229 542.4844 97.93229L540.6094 97.93229ZM540.6094 97.02604L542.3125 97.02604Q543.0469 97.02604 543.4844 96.666664Q543.9375 96.291664 543.9375 95.65104Q543.9375 94.947914 543.53125 94.635414Q543.125 94.30729 542.28125 94.30729L540.6094 94.30729L540.6094 97.02604Z" fill-rule="nonzero"/><path fill="#5a5a5a" d="M29.834375 69.35L28.56875 69.35L28.56875 60.928123L26.00625 61.85L26.00625 60.709373L29.63125 59.35L29.834375 59.35L29.834375 69.35ZM40.19375 69.35L33.678123 69.35L33.678123 68.44375L37.115623 64.61562Q37.88125 63.740623 38.178123 63.209373Q38.475 62.6625 38.475 62.06875Q38.475 61.303123 37.990623 60.803123Q37.521873 60.303123 36.740623 60.303123Q35.803123 60.303123 35.271873 60.834373Q34.75625 61.365623 34.75625 62.334373L33.490623 62.334373Q33.490623 60.959373 34.365623 60.115623Q35.25625 59.25625 36.740623 59.25625Q38.13125 59.25625 38.928123 59.990623Q39.740623 60.709373 39.740623 61.928123Q39.740623 63.396873 37.865623 65.42812L35.209373 68.31875L40.19375 68.31875L40.19375 69.35ZM47.709373 61.990623Q47.709373 62.740623 47.31875 63.31875Q46.928123 63.896873 46.25625 64.225Q47.0375 64.56875 47.490623 65.20937Q47.94375 65.85 47.94375 66.6625Q47.94375 67.95937 47.06875 68.725Q46.209373 69.49062 44.7875 69.49062Q43.35 69.49062 42.475 68.725Q41.615623 67.94375 41.615623 66.6625Q41.615623 65.85 42.053123 65.20937Q42.490623 64.55312 43.271873 64.225Q42.615623 63.896873 42.225 63.31875Q41.85 62.725 41.85 61.990623Q41.85 60.740623 42.646873 60.00625Q43.459373 59.25625 44.7875 59.25625Q46.1 59.25625 46.896873 60.00625Q47.709373 60.740623 47.709373 61.990623ZM46.678123 66.63125Q46.678123 65.80312 46.146873 65.2875Q45.615623 64.75625 44.75625 64.75625Q43.9125 64.75625 43.396873 65.27187Q42.88125 65.7875 42.88125 66.64687Q42.88125 67.49062 43.38125 67.975Q43.88125 68.45937 44.7875 68.45937Q45.6625 68.45937 46.1625 67.975Q46.678123 67.475 46.678123 66.63125ZM44.7875 60.303123Q44.0375 60.303123 43.56875 60.771873Q43.115623 61.225 43.115623 62.021873Q43.115623 62.771873 43.56875 63.240623Q44.021873 63.709373 44.771873 63.709373Q45.5375 63.709373 45.990623 63.240623Q46.44375 62.771873 46.44375 62.021873Q46.44375 61.25625 45.975 60.7875Q45.50625 60.303123 44.7875 60.303123ZM59.06875 65.74062Q59.06875 67.42812 58.2875 68.45937Q57.50625 69.49062 56.19375 69.49062Q54.803123 69.49062 54.0375 68.49062L53.975 69.35L52.803123 69.35L52.803123 58.85L54.06875 58.85L54.06875 62.771873Q54.834373 61.81875 56.178123 61.81875Q57.5375 61.81875 58.303123 62.834373Q59.06875 63.85 59.06875 65.63125L59.06875 65.74062ZM57.803123 65.58437Q57.803123 64.30312 57.303123 63.6Q56.803123 62.896873 55.865623 62.896873Q54.615623 62.896873 54.06875 64.05312L54.06875 67.25625Q54.646873 68.4125 55.88125 68.4125Q56.7875 68.4125 57.2875 67.70937Q57.803123 67.00625 57.803123 65.58437ZM63.225 67.49062L64.94375 61.959373L66.30312 61.959373L63.334373 70.49062Q62.646873 72.33437 61.13125 72.33437L60.896873 72.31875L60.428123 72.225L60.428123 71.20937L60.771873 71.225Q61.4125 71.225 61.771873 70.95937Q62.13125 70.70937 62.365623 70.02187L62.646873 69.27187L60.00625 61.959373L61.38125 61.959373L63.225 67.49062ZM69.52187 60.1625L69.52187 61.959373L70.89687 61.959373L70.89687 62.928123L69.52187 62.928123L69.52187 67.52187Q69.52187 67.95937 69.70937 68.19375Q69.89687 68.4125 70.33437 68.4125Q70.55312 68.4125 70.94375 68.31875L70.94375 69.35Q70.44375 69.49062 69.975 69.49062Q69.11562 69.49062 68.67812 68.975Q68.25625 68.45937 68.25625 67.52187L68.25625 62.928123L66.9125 62.928123L66.9125 61.959373L68.25625 61.959373L68.25625 60.1625L69.52187 60.1625ZM75.88125 69.49062Q74.36562 69.49062 73.42812 68.50625Q72.49062 67.50625 72.49062 65.85L72.49062 65.63125Q72.49062 64.52187 72.9125 63.6625Q73.33437 62.7875 74.08437 62.303123Q74.83437 61.81875 75.725 61.81875Q77.1625 61.81875 77.95937 62.771873Q78.75625 63.709373 78.75625 65.49062L78.75625 66.00625L73.75625 66.00625Q73.77187 67.1 74.38125 67.7875Q75.00625 68.45937 75.94375 68.45937Q76.61562 68.45937 77.06875 68.19375Q77.5375 67.9125 77.89687 67.45937L78.6625 68.05312Q77.74062 69.49062 75.88125 69.49062ZM75.725 62.85Q74.95937 62.85 74.42812 63.4125Q73.9125 63.975 73.7875 64.975L77.49062 64.975L77.49062 64.88125Q77.44375 63.9125 76.975 63.38125Q76.50625 62.85 75.725 62.85ZM84.86562 65.92812L84.08437 66.75625L84.08437 69.35L82.81875 69.35L82.81875 58.85L84.08437 58.85L84.08437 65.19375L84.75625 64.38125L87.05312 61.959373L88.6 61.959373L85.725 65.0375L88.92812 69.35L87.44375 69.35L84.86562 65.92812ZM92.88125 69.49062Q91.36562 69.49062 90.42812 68.50625Q89.49062 67.50625 89.49062 65.85L89.49062 65.63125Q89.49062 64.52187 89.9125 63.6625Q90.33437 62.7875 91.08437 62.303123Q91.83437 61.81875 92.725 61.81875Q94.1625 61.81875 94.95937 62.771873Q95.75625 63.709373 95.75625 65.49062L95.75625 66.00625L90.75625 66.00625Q90.77187 67.1 91.38125 67.7875Q92.00625 68.45937 92.94375 68.45937Q93.61562 68.45937 94.06875 68.19375Q94.5375 67.9125 94.89687 67.45937L95.6625 68.05312Q94.74062 69.49062 92.88125 69.49062ZM92.725 62.85Q91.95937 62.85 91.42812 63.4125Q90.9125 63.975 90.7875 64.975L94.49062 64.975L94.49062 64.88125Q94.44375 63.9125 93.975 63.38125Q93.50625 62.85 92.725 62.85ZM99.225 67.49062L100.94375 61.959373L102.30312 61.959373L99.33437 70.49062Q98.64687 72.33437 97.13125 72.33437L96.89687 72.31875L96.42812 72.225L96.42812 71.20937L96.77187 71.225Q97.4125 71.225 97.77187 70.95937Q98.13125 70.70937 98.36562 70.02187L98.64687 69.27187L96.00625 61.959373L97.38125 61.959373L99.225 67.49062ZM108.11562 67.38125Q108.11562 66.88125 107.725 66.6Q107.33437 66.30312 106.38125 66.1Q105.42812 65.89687 104.85 65.61562Q104.2875 65.31875 104.02187 64.92812Q103.75625 64.5375 103.75625 63.990623Q103.75625 63.06875 104.52187 62.44375Q105.2875 61.81875 106.49062 61.81875Q107.74062 61.81875 108.52187 62.475Q109.30312 63.115623 109.30312 64.13125L108.0375 64.13125Q108.0375 63.6 107.6 63.225Q107.1625 62.85 106.49062 62.85Q105.80312 62.85 105.4125 63.1625Q105.02187 63.459373 105.02187 63.94375Q105.02187 64.39687 105.38125 64.63125Q105.74062 64.86562 106.67812 65.08437Q107.63125 65.2875 108.225 65.58437Q108.81875 65.88125 109.1 66.30312Q109.38125 66.70937 109.38125 67.30312Q109.38125 68.2875 108.58437 68.89687Q107.7875 69.49062 106.52187 69.49062Q105.64687 69.49062 104.95937 69.17812Q104.27187 68.85 103.88125 68.2875Q103.50625 67.725 103.50625 67.06875L104.77187 67.06875Q104.80312 67.70937 105.27187 68.08437Q105.75625 68.45937 106.52187 68.45937Q107.24062 68.45937 107.67812 68.1625Q108.11562 67.86562 108.11562 67.38125ZM110.77187 71.33437L110.05312 70.83437Q110.69375 69.94375 110.725 68.99062L110.725 67.85L111.95937 67.85L111.95937 68.85Q111.95937 69.5375 111.61562 70.225Q111.27187 70.9125 110.77187 71.33437ZM120.83437 69.35L119.56875 69.35L119.56875 60.928123L117.00625 61.85L117.00625 60.709373L120.63125 59.35L120.83437 59.35L120.83437 69.35ZM130.9125 65.1Q130.9125 67.31875 130.14688 68.4125Q129.39688 69.49062 127.7875 69.49062Q126.19375 69.49062 125.42812 68.44375Q124.6625 67.38125 124.63125 65.27187L124.63125 63.584373Q124.63125 61.396873 125.38125 60.334373Q126.14687 59.25625 127.77187 59.25625Q129.38126 59.25625 130.13126 60.2875Q130.89688 61.31875 130.9125 63.459373L130.9125 65.1ZM129.64688 63.38125Q129.64688 61.771873 129.19376 61.0375Q128.75626 60.303123 127.77187 60.303123Q126.80312 60.303123 126.35 61.0375Q125.9125 61.75625 125.89687 63.271873L125.89687 65.30312Q125.89687 66.9125 126.36562 67.69375Q126.83437 68.45937 127.7875 68.45937Q128.725 68.45937 129.17813 67.74062Q129.63126 67.00625 129.64688 65.44375L129.64688 63.38125ZM139.19376 69.35L132.67813 69.35L132.67813 68.44375L136.11563 64.61562Q136.88126 63.740623 137.17813 63.209373Q137.475 62.6625 137.475 62.06875Q137.475 61.303123 136.99063 60.803123Q136.52188 60.303123 135.74063 60.303123Q134.80313 60.303123 134.27188 60.834373Q133.75626 61.365623 133.75626 62.334373L132.49063 62.334373Q132.49063 60.959373 133.36563 60.115623Q134.25626 59.25625 135.74063 59.25625Q137.13126 59.25625 137.92813 59.990623Q138.74063 60.709373 138.74063 61.928123Q138.74063 63.396873 136.86563 65.42812L134.20938 68.31875L139.19376 68.31875L139.19376 69.35ZM146.02188 66.00625L147.39688 66.00625L147.39688 67.0375L146.02188 67.0375L146.02188 69.35L144.74063 69.35L144.74063 67.0375L140.20938 67.0375L140.20938 66.2875L144.6625 59.396873L146.02188 59.396873L146.02188 66.00625ZM141.64688 66.00625L144.74063 66.00625L144.74063 61.13125L144.6 61.396873L141.64688 66.00625ZM158.06876 65.74062Q158.06876 67.42812 157.2875 68.45937Q156.50626 69.49062 155.19376 69.49062Q153.80313 69.49062 153.0375 68.49062L152.975 69.35L151.80313 69.35L151.80313 58.85L153.06876 58.85L153.06876 62.771873Q153.83438 61.81875 155.17813 61.81875Q156.5375 61.81875 157.30313 62.834373Q158.06876 63.85 158.06876 65.63125L158.06876 65.74062ZM156.80313 65.58437Q156.80313 64.30312 156.30313 63.6Q155.80313 62.896873 154.86563 62.896873Q153.61563 62.896873 153.06876 64.05312L153.06876 67.25625Q153.64688 68.4125 154.88126 68.4125Q155.7875 68.4125 156.2875 67.70937Q156.80313 67.00625 156.80313 65.58437ZM162.225 67.49062L163.94376 61.959373L165.30313 61.959373L162.33438 70.49062Q161.64688 72.33437 160.13126 72.33437L159.89688 72.31875L159.42813 72.225L159.42813 71.20937L159.77188 71.225Q160.4125 71.225 160.77188 70.95937Q161.13126 70.70937 161.36563 70.02187L161.64688 69.27187L159.00626 61.959373L160.38126 61.959373L162.225 67.49062ZM168.52188 60.1625L168.52188 61.959373L169.89688 61.959373L169.89688 62.928123L168.52188 62.928123L168.52188 67.52187Q168.52188 67.95937 168.70938 68.19375Q168.89688 68.4125 169.33438 68.4125Q169.55313 68.4125 169.94376 68.31875L169.94376 69.35Q169.44376 69.49062 168.975 69.49062Q168.11563 69.49062 167.67813 68.975Q167.25626 68.45937 167.25626 67.52187L167.25626 62.928123L165.9125 62.928123L165.9125 61.959373L167.25626 61.959373L167.25626 60.1625L168.52188 60.1625ZM174.88126 69.49062Q173.36563 69.49062 172.42813 68.50625Q171.49063 67.50625 171.49063 65.85L171.49063 65.63125Q171.49063 64.52187 171.9125 63.6625Q172.33438 62.7875 173.08438 62.303123Q173.83438 61.81875 174.725 61.81875Q176.1625 61.81875 176.95938 62.771873Q177.75626 63.709373 177.75626 65.49062L177.75626 66.00625L172.75626 66.00625Q172.77188 67.1 173.38126 67.7875Q174.00626 68.45937 174.94376 68.45937Q175.61563 68.45937 176.06876 68.19375Q176.5375 67.9125 176.89688 67.45937L177.6625 68.05312Q176.74063 69.49062 174.88126 69.49062ZM174.725 62.85Q173.95938 62.85 173.42813 63.4125Q172.9125 63.975 172.7875 64.975L176.49063 64.975L176.49063 64.88125Q176.44376 63.9125 175.975 63.38125Q175.50626 62.85 174.725 62.85ZM184.24063 67.63125L186.08438 61.959373L187.36563 61.959373L184.725 69.35L183.75626 69.35L181.06876 61.959373L182.36563 61.959373L184.24063 67.63125ZM193.38126 69.35Q193.27188 69.13125 193.19376 68.56875Q192.31876 69.49062 191.08438 69.49062Q189.99063 69.49062 189.2875 68.88125Q188.6 68.25625 188.6 67.30312Q188.6 66.14687 189.475 65.50625Q190.35 64.86562 191.94376 64.86562L193.17813 64.86562L193.17813 64.2875Q193.17813 63.615623 192.77188 63.225Q192.38126 62.834373 191.61563 62.834373Q190.92813 62.834373 190.475 63.178123Q190.02188 63.521873 190.02188 64.00625L188.74063 64.00625Q188.74063 63.44375 189.13126 62.928123Q189.5375 62.4125 190.20938 62.115623Q190.88126 61.81875 191.67813 61.81875Q192.95938 61.81875 193.67813 62.459373Q194.4125 63.1 194.44376 64.20937L194.44376 67.61562Q194.44376 68.63125 194.69376 69.24062L194.69376 69.35L193.38126 69.35ZM191.27188 68.38125Q191.86563 68.38125 192.39688 68.08437Q192.94376 67.77187 193.17813 67.27187L193.17813 65.75625L192.17813 65.75625Q189.86563 65.75625 189.86563 67.11562Q189.86563 67.70937 190.25626 68.05312Q190.64688 68.38125 191.27188 68.38125ZM198.17813 69.35L196.9125 69.35L196.9125 58.85L198.17813 58.85L198.17813 69.35ZM204.38126 68.61562Q203.63126 69.49062 202.20938 69.49062Q201.02188 69.49062 200.39688 68.80312Q199.7875 68.11562 199.7875 66.77187L199.7875 61.959373L201.0375 61.959373L201.0375 66.725Q201.0375 68.4125 202.4125 68.4125Q203.86563 68.4125 204.33438 67.33437L204.33438 61.959373L205.6 61.959373L205.6 69.35L204.39688 69.35L204.38126 68.61562ZM210.88126 69.49062Q209.36563 69.49062 208.42813 68.50625Q207.49063 67.50625 207.49063 65.85L207.49063 65.63125Q207.49063 64.52187 207.9125 63.6625Q208.33438 62.7875 209.08438 62.303123Q209.83438 61.81875 210.725 61.81875Q212.1625 61.81875 212.95938 62.771873Q213.75626 63.709373 213.75626 65.49062L213.75626 66.00625L208.75626 66.00625Q208.77188 67.1 209.38126 67.7875Q210.00626 68.45937 210.94376 68.45937Q211.61563 68.45937 212.06876 68.19375Q212.5375 67.9125 212.89688 67.45937L213.6625 68.05312Q212.74063 69.49062 210.88126 69.49062ZM210.725 62.85Q209.95938 62.85 209.42813 63.4125Q208.9125 63.975 208.7875 64.975L212.49063 64.975L212.49063 64.88125Q212.44376 63.9125 211.975 63.38125Q211.50626 62.85 210.725 62.85ZM219.11563 67.38125Q219.11563 66.88125 218.725 66.6Q218.33438 66.30312 217.38126 66.1Q216.42813 65.89687 215.85 65.61562Q215.2875 65.31875 215.02188 64.92812Q214.75626 64.5375 214.75626 63.990623Q214.75626 63.06875 215.52188 62.44375Q216.2875 61.81875 217.49063 61.81875Q218.74063 61.81875 219.52188 62.475Q220.30313 63.115623 220.30313 64.13125L219.0375 64.13125Q219.0375 63.6 218.6 63.225Q218.1625 62.85 217.49063 62.85Q216.80313 62.85 216.4125 63.1625Q216.02188 63.459373 216.02188 63.94375Q216.02188 64.39687 216.38126 64.63125Q216.74063 64.86562 217.67813 65.08437Q218.63126 65.2875 219.225 65.58437Q219.81876 65.88125 220.1 66.30312Q220.38126 66.70937 220.38126 67.30312Q220.38126 68.2875 219.58438 68.89687Q218.7875 69.49062 217.52188 69.49062Q216.64688 69.49062 215.95938 69.17812Q215.27188 68.85 214.88126 68.2875Q214.50626 67.725 214.50626 67.06875L215.77188 67.06875Q215.80313 67.70937 216.27188 68.08437Q216.75626 68.45937 217.52188 68.45937Q218.24063 68.45937 218.67813 68.1625Q219.11563 67.86562 219.11563 67.38125Z" fill-rule="nonzero"/><path fill="#a2a2a2" d="M30.69375 37.50625Q28.271875 36.81875 27.178125 35.81875Q26.084375 34.803123 26.084375 33.31875Q26.084375 31.631248 27.428125 30.537498Q28.771875 29.428123 30.9125 29.428123Q32.38125 29.428123 33.521873 30.006248Q34.678123 30.568748 35.303123 31.568748Q35.928123 32.553123 35.928123 33.740623L34.053123 33.740623Q34.053123 32.459373 33.225 31.724998Q32.4125 30.974998 30.9125 30.974998Q29.521875 30.974998 28.740625 31.584373Q27.975 32.19375 27.975 33.2875Q27.975 34.146873 28.709375 34.75625Q29.44375 35.35 31.209375 35.85Q32.990623 36.35 33.990623 36.959373Q34.990623 37.553123 35.475 38.35Q35.959373 39.146873 35.959373 40.240623Q35.959373 41.959373 34.615623 43.00625Q33.271873 44.053123 31.00625 44.053123Q29.553125 44.053123 28.271875 43.490623Q27.00625 42.928123 26.31875 41.959373Q25.63125 40.975 25.63125 39.725L27.521875 39.725Q27.521875 41.021873 28.475 41.771873Q29.428125 42.50625 31.00625 42.50625Q32.490623 42.50625 33.2875 41.9125Q34.084373 41.303123 34.084373 40.25625Q34.084373 39.209373 33.35 38.646873Q32.615623 38.06875 30.69375 37.50625ZM40.178123 43.85L38.38125 43.85L38.38125 33.2875L40.178123 33.2875L40.178123 43.85ZM38.225 30.474998Q38.225 30.037498 38.490623 29.740623Q38.771873 29.428123 39.2875 29.428123Q39.81875 29.428123 40.084373 29.740623Q40.365623 30.037498 40.365623 30.474998Q40.365623 30.912498 40.084373 31.209373Q39.81875 31.506248 39.2875 31.506248Q38.771873 31.506248 38.490623 31.209373Q38.225 30.912498 38.225 30.474998ZM44.928123 33.2875L44.990623 34.615623Q46.19375 33.084373 48.146873 33.084373Q51.50625 33.084373 51.521873 36.865623L51.521873 43.85L49.725 43.85L49.725 36.85Q49.709373 35.709373 49.19375 35.1625Q48.69375 34.615623 47.6 34.615623Q46.725 34.615623 46.053123 35.084373Q45.396873 35.553123 45.021873 36.31875L45.021873 43.85L43.225 43.85L43.225 33.2875L44.928123 33.2875ZM53.7875 38.475Q53.7875 36.00625 54.928123 34.553123Q56.06875 33.084373 57.959373 33.084373Q59.896873 33.084373 60.975 34.459373L61.06875 33.2875L62.709373 33.2875L62.709373 43.6Q62.709373 45.646873 61.490623 46.81875Q60.2875 48.00625 58.225 48.00625Q57.084373 48.00625 55.990623 47.521873Q54.896873 47.0375 54.31875 46.178123L55.25625 45.1Q56.428123 46.5375 58.1 46.5375Q59.428123 46.5375 60.1625 45.7875Q60.896873 45.053123 60.896873 43.709373L60.896873 42.7875Q59.81875 44.053123 57.94375 44.053123Q56.084373 44.053123 54.928123 42.553123Q53.7875 41.053123 53.7875 38.475ZM55.6 38.678123Q55.6 40.475 56.334373 41.490623Q57.06875 42.50625 58.38125 42.50625Q60.1 42.50625 60.896873 40.959373L60.896873 36.13125Q60.06875 34.615623 58.4125 34.615623Q57.084373 34.615623 56.334373 35.646873Q55.6 36.678123 55.6 38.678123ZM67.17812 43.85L65.38125 43.85L65.38125 28.849998L67.17812 28.849998L67.17812 43.85ZM74.6 44.053123Q72.45937 44.053123 71.1 42.646873Q69.75625 41.225 69.75625 38.865623L69.75625 38.521873Q69.75625 36.959373 70.35 35.725Q70.95937 34.490623 72.0375 33.7875Q73.11562 33.084373 74.38125 33.084373Q76.44375 33.084373 77.58437 34.44375Q78.725 35.803123 78.725 38.334373L78.725 39.084373L71.56875 39.084373Q71.6 40.646873 72.475 41.615623Q73.35 42.56875 74.69375 42.56875Q75.6625 42.56875 76.31875 42.178123Q76.99062 41.7875 77.49062 41.146873L78.58437 42.00625Q77.25625 44.053123 74.6 44.053123ZM74.38125 34.56875Q73.2875 34.56875 72.5375 35.365623Q71.80312 36.1625 71.63125 37.6L76.9125 37.6L76.9125 37.459373Q76.83437 36.084373 76.1625 35.334373Q75.50625 34.56875 74.38125 34.56875ZM88.50625 43.85L86.63125 43.85L86.63125 29.631248L88.50625 29.631248L88.50625 43.85ZM92.92812 33.2875L92.99062 34.615623Q94.19375 33.084373 96.14687 33.084373Q99.50625 33.084373 99.52187 36.865623L99.52187 43.85L97.725 43.85L97.725 36.85Q97.70937 35.709373 97.19375 35.1625Q96.69375 34.615623 95.6 34.615623Q94.725 34.615623 94.05312 35.084373Q93.39687 35.553123 93.02187 36.31875L93.02187 43.85L91.225 43.85L91.225 33.2875L92.92812 33.2875ZM108.36562 41.053123Q108.36562 40.31875 107.81875 39.9125Q107.27187 39.50625 105.89687 39.209373Q104.52187 38.9125 103.70937 38.50625Q102.9125 38.1 102.52187 37.5375Q102.14687 36.959373 102.14687 36.178123Q102.14687 34.88125 103.24062 33.990623Q104.33437 33.084373 106.05312 33.084373Q107.85 33.084373 108.95937 34.021873Q110.08437 34.94375 110.08437 36.38125L108.25625 36.38125Q108.25625 35.646873 107.63125 35.115623Q107.00625 34.56875 106.05312 34.56875Q105.05312 34.56875 104.49062 35.00625Q103.94375 35.428123 103.94375 36.13125Q103.94375 36.771873 104.45937 37.115623Q104.975 37.44375 106.33437 37.75625Q107.69375 38.053123 108.52187 38.475Q109.36562 38.88125 109.77187 39.475Q110.17812 40.06875 110.17812 40.9125Q110.17812 42.334373 109.0375 43.19375Q107.9125 44.053123 106.1 44.053123Q104.83437 44.053123 103.85 43.6Q102.88125 43.146873 102.31875 42.35Q101.77187 41.5375 101.77187 40.6L103.58437 40.6Q103.63125 41.50625 104.30312 42.0375Q104.99062 42.56875 106.1 42.56875Q107.13125 42.56875 107.74062 42.1625Q108.36562 41.740623 108.36562 41.053123ZM116.6 44.053123Q114.45937 44.053123 113.1 42.646873Q111.75625 41.225 111.75625 38.865623L111.75625 38.521873Q111.75625 36.959373 112.35 35.725Q112.95937 34.490623 114.0375 33.7875Q115.11562 33.084373 116.38125 33.084373Q118.44375 33.084373 119.58437 34.44375Q120.725 35.803123 120.725 38.334373L120.725 39.084373L113.56875 39.084373Q113.6 40.646873 114.475 41.615623Q115.35 42.56875 116.69375 42.56875Q117.6625 42.56875 118.31875 42.178123Q118.99062 41.7875 119.49062 41.146873L120.58437 42.00625Q119.25625 44.053123 116.6 44.053123ZM116.38125 34.56875Q115.2875 34.56875 114.5375 35.365623Q113.80312 36.1625 113.63125 37.6L118.9125 37.6L118.9125 37.459373Q118.83437 36.084373 118.1625 35.334373Q117.50625 34.56875 116.38125 34.56875ZM128.31876 34.896873Q127.9125 34.834373 127.44375 34.834373Q125.6625 34.834373 125.02187 36.35L125.02187 43.85L123.225 43.85L123.225 33.2875L124.975 33.2875L125.00625 34.50625Q125.89687 33.084373 127.52187 33.084373Q128.05313 33.084373 128.31876 33.225L128.31876 34.896873ZM132.6625 30.724998L132.6625 33.2875L134.64688 33.2875L134.64688 34.678123L132.6625 34.678123L132.6625 41.225Q132.6625 41.865623 132.92813 42.19375Q133.19376 42.50625 133.83438 42.50625Q134.14688 42.50625 134.69376 42.38125L134.69376 43.85Q133.975 44.053123 133.30313 44.053123Q132.1 44.053123 131.475 43.31875Q130.86563 42.584373 130.86563 41.225L130.86563 34.678123L128.94376 34.678123L128.94376 33.2875L130.86563 33.2875L130.86563 30.724998L132.6625 30.724998ZM143.36563 41.053123Q143.36563 40.31875 142.81876 39.9125Q142.27188 39.50625 140.89688 39.209373Q139.52188 38.9125 138.70938 38.50625Q137.9125 38.1 137.52188 37.5375Q137.14688 36.959373 137.14688 36.178123Q137.14688 34.88125 138.24063 33.990623Q139.33438 33.084373 141.05313 33.084373Q142.85 33.084373 143.95938 34.021873Q145.08438 34.94375 145.08438 36.38125L143.25626 36.38125Q143.25626 35.646873 142.63126 35.115623Q142.00626 34.56875 141.05313 34.56875Q140.05313 34.56875 139.49063 35.00625Q138.94376 35.428123 138.94376 36.13125Q138.94376 36.771873 139.45938 37.115623Q139.975 37.44375 141.33438 37.75625Q142.69376 38.053123 143.52188 38.475Q144.36563 38.88125 144.77188 39.475Q145.17813 40.06875 145.17813 40.9125Q145.17813 42.334373 144.0375 43.19375Q142.9125 44.053123 141.1 44.053123Q139.83438 44.053123 138.85 43.6Q137.88126 43.146873 137.31876 42.35Q136.77188 41.5375 136.77188 40.6L138.58438 40.6Q138.63126 41.50625 139.30313 42.0375Q139.99063 42.56875 141.1 42.56875Q142.13126 42.56875 142.74063 42.1625Q143.36563 41.740623 143.36563 41.053123Z" fill-rule="nonzero"/></svg>